G04 #@! TF.GenerationSoftware,KiCad,Pcbnew,8.0.8*
G04 #@! TF.CreationDate,2025-03-03T09:41:38+03:00*
G04 #@! TF.ProjectId,KeebIsSplit,4b656562-4973-4537-906c-69742e6b6963,rev?*
G04 #@! TF.SameCoordinates,Original*
G04 #@! TF.FileFunction,Profile,NP*
%FSLAX46Y46*%
G04 Gerber Fmt 4.6, Leading zero omitted, Abs format (unit mm)*
G04 Created by KiCad (PCBNEW 8.0.8) date 2025-03-03 09:41:38*
%MOMM*%
%LPD*%
G01*
G04 APERTURE LIST*
G04 #@! TA.AperFunction,Profile*
%ADD10C,0.250000*%
G04 #@! TD*
G04 APERTURE END LIST*
D10*
X22150000Y-114350000D02*
X37200000Y-114350000D01*
X189985000Y-53200000D02*
X189985000Y-51200000D01*
X219450000Y-144306500D02*
G75*
G02*
X218450000Y-145306500I-1000000J0D01*
G01*
X88800000Y-109850000D02*
X88800000Y-127400000D01*
X95325000Y-130400000D02*
X95325000Y-128400000D01*
X289100000Y-116350000D02*
X289100000Y-114350000D01*
X204900000Y-49200000D02*
G75*
G02*
X203900000Y-50200000I-1000000J0D01*
G01*
X78300000Y-49200000D02*
G75*
G02*
X77300000Y-50200000I-1000000J0D01*
G01*
X284100000Y-116350000D02*
G75*
G02*
X283100000Y-117350000I-1000000J0D01*
G01*
X170203965Y-118371163D02*
G75*
G02*
X170070002Y-117863889I866535J500163D01*
G01*
X59250000Y-51200000D02*
X59250000Y-57200000D01*
X291850000Y-58200000D02*
X304150000Y-58200000D01*
X21650000Y-55200000D02*
G75*
G02*
X20650000Y-54200000I0J1000000D01*
G01*
X273050000Y-43200000D02*
X273050000Y-54200000D01*
X183734322Y-141806430D02*
X170203965Y-118371163D01*
X42200000Y-114350000D02*
X57250000Y-114350000D01*
X305150000Y-59200000D02*
X305150000Y-113350000D01*
X120400000Y-42200000D02*
X54250000Y-42200000D01*
X283100000Y-117350000D02*
X269050000Y-117350000D01*
X58250000Y-58200000D02*
X39450000Y-58200000D01*
X190985000Y-50200000D02*
X203900000Y-50200000D01*
X33450000Y-55200000D02*
G75*
G02*
X34450000Y-56200000I0J-1000000D01*
G01*
X231975000Y-131400000D02*
G75*
G02*
X230975000Y-130400000I0J1000000D01*
G01*
X135315000Y-50200000D02*
G75*
G02*
X136315000Y-51200000I0J-1000000D01*
G01*
X238500000Y-145306465D02*
G75*
G02*
X237499998Y-144295087I100J1000165D01*
G01*
X272050000Y-42200000D02*
G75*
G02*
X273050000Y-43200000I0J-1000000D01*
G01*
X305650000Y-54200000D02*
G75*
G02*
X304650000Y-55200000I-1000000J0D01*
G01*
X39450000Y-56200000D02*
G75*
G02*
X40450000Y-55200000I1000000J0D01*
G01*
X106850000Y-132400000D02*
X106850000Y-144317713D01*
X285850000Y-55200000D02*
G75*
G02*
X286850000Y-56200000I0J-1000000D01*
G01*
X122400000Y-50200000D02*
G75*
G02*
X121400000Y-49200000I0J1000000D01*
G01*
X268050000Y-58200000D02*
X286850000Y-58200000D01*
X43200000Y-117350000D02*
G75*
G02*
X42200000Y-116350000I0J1000000D01*
G01*
X218884174Y-128400000D02*
X200356120Y-133364577D01*
X305650000Y-150306500D02*
G75*
G02*
X304650000Y-151306500I-1000000J0D01*
G01*
X224975000Y-131400000D02*
X220450000Y-131400000D01*
X219450000Y-132400000D02*
X219450000Y-144306500D01*
X59250000Y-57200000D02*
G75*
G02*
X58250000Y-58200000I-1000000J0D01*
G01*
X115400000Y-52200000D02*
X115400000Y-51200000D01*
X225975000Y-128400000D02*
X225975000Y-130400000D01*
X290100000Y-117350000D02*
G75*
G02*
X289100000Y-116350000I0J1000000D01*
G01*
X210900000Y-52200000D02*
G75*
G02*
X209900000Y-53200000I-1000000J0D01*
G01*
X53250000Y-54200000D02*
G75*
G02*
X52250000Y-55200000I-1000000J0D01*
G01*
X304650000Y-36200000D02*
G75*
G02*
X305650000Y-37200000I0J-1000000D01*
G01*
X39450000Y-56200000D02*
X39450000Y-58200000D01*
X247000000Y-45200000D02*
G75*
G02*
X248000000Y-46200000I0J-1000000D01*
G01*
X97350000Y-50200000D02*
G75*
G02*
X96350000Y-49200000I0J1000000D01*
G01*
X58250000Y-107350000D02*
G75*
G02*
X59250000Y-106350000I1000000J0D01*
G01*
X107850100Y-145306465D02*
G75*
G02*
X106850000Y-144317713I0J1000165D01*
G01*
X183985000Y-50200000D02*
X142315000Y-50200000D01*
X52250000Y-55200000D02*
X40450000Y-55200000D01*
X156230000Y-117871200D02*
X156230000Y-54200000D01*
X189985000Y-53200000D02*
X209900000Y-53200000D01*
X58250000Y-113350000D02*
X58250000Y-107350000D01*
X230950000Y-45200000D02*
X247000000Y-45200000D01*
X136315000Y-53200000D02*
X136315000Y-51200000D01*
X77300000Y-50200000D02*
X60250000Y-50200000D01*
X120400000Y-42200000D02*
G75*
G02*
X121400000Y-43200000I0J-1000000D01*
G01*
X101325000Y-131400000D02*
X105850000Y-131400000D01*
X200356120Y-133364577D02*
X185100420Y-142172460D01*
X237500000Y-127400000D02*
G75*
G02*
X236500000Y-128400000I-1000000J0D01*
G01*
X236500000Y-131400000D02*
X231975000Y-131400000D01*
X107850100Y-145306465D02*
X218450000Y-145306465D01*
X305150000Y-113350000D02*
G75*
G02*
X304150000Y-114350000I-1000000J0D01*
G01*
X210900000Y-51200000D02*
G75*
G02*
X211900000Y-50200000I1000000J0D01*
G01*
X268050000Y-113350000D02*
X268050000Y-107350000D01*
X170070000Y-54200000D02*
G75*
G02*
X171070000Y-53200000I1000000J0D01*
G01*
X96350000Y-49200000D02*
X96350000Y-46200000D01*
X142565616Y-141806537D02*
X156096042Y-118371152D01*
X21650010Y-151306460D02*
G75*
G02*
X20649940Y-150306460I-10J1000060D01*
G01*
X34450000Y-58200000D02*
X22150000Y-58200000D01*
X230975000Y-130400000D02*
X230975000Y-128400000D01*
X267050000Y-106350000D02*
X241000000Y-106350000D01*
X114400000Y-50200000D02*
X97350000Y-50200000D01*
X305650000Y-54200000D02*
X305650000Y-37200000D01*
X274050000Y-55200000D02*
G75*
G02*
X273050000Y-54200000I0J1000000D01*
G01*
X267050000Y-145306465D02*
X238500000Y-145306465D01*
X59250000Y-106350000D02*
X85300000Y-106350000D01*
X155230000Y-53200000D02*
X141315000Y-53200000D01*
X170070000Y-117863889D02*
X170070000Y-54200000D01*
X100325000Y-128400000D02*
X100325000Y-130400000D01*
X37200000Y-116350000D02*
G75*
G02*
X36200000Y-117350000I-1000000J0D01*
G01*
X274050000Y-55200000D02*
X285850000Y-55200000D01*
X210900000Y-52200000D02*
X210900000Y-51200000D01*
X105850000Y-131400000D02*
G75*
G02*
X106850000Y-132400000I0J-1000000D01*
G01*
X21650000Y-36200000D02*
X304650000Y-36200000D01*
X291850000Y-56200000D02*
G75*
G02*
X292850000Y-55200000I1000000J0D01*
G01*
X205900000Y-42200000D02*
X272050000Y-42200000D01*
X185100420Y-142172460D02*
G75*
G02*
X183734340Y-141806420I-500020J866060D01*
G01*
X43200000Y-117350000D02*
X57250000Y-117350000D01*
X304150000Y-114350000D02*
X289100000Y-114350000D01*
X78300000Y-46200000D02*
X78300000Y-49200000D01*
X269050000Y-114350000D02*
G75*
G02*
X268050000Y-113350000I0J1000000D01*
G01*
X142565616Y-141806537D02*
G75*
G02*
X141199673Y-142172422I-865916J500037D01*
G01*
X95350000Y-45200000D02*
X79300000Y-45200000D01*
X304650000Y-117350000D02*
G75*
G02*
X305650000Y-118350000I0J-1000000D01*
G01*
X88800000Y-144306500D02*
G75*
G02*
X87800000Y-145306500I-1000000J0D01*
G01*
X204900000Y-43200000D02*
G75*
G02*
X205900000Y-42200000I1000000J0D01*
G01*
X20650000Y-54200000D02*
X20650000Y-37200000D01*
X59250000Y-145306465D02*
X87800000Y-145306465D01*
X304150000Y-58200000D02*
G75*
G02*
X305150000Y-59200000I0J-1000000D01*
G01*
X304650000Y-117350000D02*
X290100000Y-117350000D01*
X292850000Y-55200000D02*
X304650000Y-55200000D01*
X229950000Y-49200000D02*
X229950000Y-46200000D01*
X88800000Y-132400000D02*
G75*
G02*
X89800000Y-131400000I1000000J0D01*
G01*
X20650000Y-37200000D02*
G75*
G02*
X21650000Y-36200000I1000000J0D01*
G01*
X304650000Y-151306465D02*
X21650010Y-151306465D01*
X58250000Y-113350000D02*
G75*
G02*
X57250000Y-114350000I-1000000J0D01*
G01*
X171070000Y-53200000D02*
X184985000Y-53200000D01*
X42200000Y-114350000D02*
X42200000Y-116350000D01*
X57250000Y-117350000D02*
G75*
G02*
X58250000Y-118350000I0J-1000000D01*
G01*
X95350000Y-45200000D02*
G75*
G02*
X96350000Y-46200000I0J-1000000D01*
G01*
X34450000Y-58200000D02*
X34450000Y-56200000D01*
X155230000Y-53200000D02*
G75*
G02*
X156230000Y-54200000I0J-1000000D01*
G01*
X236500000Y-131400000D02*
G75*
G02*
X237500000Y-132400000I0J-1000000D01*
G01*
X85300000Y-106350000D02*
G75*
G02*
X88800000Y-109850000I0J-3500000D01*
G01*
X268050000Y-144306500D02*
G75*
G02*
X267050000Y-145306500I-1000000J0D01*
G01*
X101325000Y-131400000D02*
G75*
G02*
X100325000Y-130400000I0J1000000D01*
G01*
X237500000Y-109850000D02*
X237500000Y-127400000D01*
X88800000Y-144306500D02*
X88800000Y-132400000D01*
X114400000Y-50200000D02*
G75*
G02*
X115400000Y-51200000I0J-1000000D01*
G01*
X189985000Y-51200000D02*
G75*
G02*
X190985000Y-50200000I1000000J0D01*
G01*
X22150000Y-114350000D02*
G75*
G02*
X21150000Y-113350000I0J1000000D01*
G01*
X183985000Y-50200000D02*
G75*
G02*
X184985000Y-51200000I0J-1000000D01*
G01*
X95325000Y-130400000D02*
G75*
G02*
X94325000Y-131400000I-1000000J0D01*
G01*
X121400000Y-49200000D02*
X121400000Y-43200000D01*
X136315000Y-53200000D02*
X116400000Y-53200000D01*
X59250000Y-145306465D02*
G75*
G02*
X58250000Y-144317713I100J1000165D01*
G01*
X284100000Y-114350000D02*
X269050000Y-114350000D01*
X237500000Y-109850000D02*
G75*
G02*
X241000000Y-106350000I3500000J0D01*
G01*
X21650000Y-117350000D02*
X36200000Y-117350000D01*
X284100000Y-114350000D02*
X284100000Y-116350000D01*
X141315000Y-51200000D02*
X141315000Y-53200000D01*
X305650000Y-150306500D02*
X305650000Y-118350000D01*
X107415826Y-128400000D02*
X125943880Y-133364577D01*
X219450000Y-132400000D02*
G75*
G02*
X220450000Y-131400000I1000000J0D01*
G01*
X125943880Y-133364577D02*
X141199633Y-142172490D01*
X100325000Y-128400000D02*
X107415826Y-128400000D01*
X59250000Y-51200000D02*
G75*
G02*
X60250000Y-50200000I1000000J0D01*
G01*
X58250000Y-118350000D02*
X58250000Y-144317713D01*
X286850000Y-56200000D02*
X286850000Y-58200000D01*
X37200000Y-116350000D02*
X37200000Y-114350000D01*
X89800000Y-131400000D02*
X94325000Y-131400000D01*
X116400000Y-53200000D02*
G75*
G02*
X115400000Y-52200000I0J1000000D01*
G01*
X268050000Y-58200000D02*
G75*
G02*
X267050000Y-57200000I0J1000000D01*
G01*
X267050000Y-51200000D02*
X267050000Y-57200000D01*
X225975000Y-128400000D02*
X218884174Y-128400000D01*
X89800000Y-128400000D02*
G75*
G02*
X88800000Y-127400000I0J1000000D01*
G01*
X249000000Y-50200000D02*
X266050000Y-50200000D01*
X53250000Y-43200000D02*
X53250000Y-54200000D01*
X249000000Y-50200000D02*
G75*
G02*
X248000000Y-49200000I0J1000000D01*
G01*
X21150000Y-59200000D02*
X21150000Y-113350000D01*
X248000000Y-46200000D02*
X248000000Y-49200000D01*
X78300000Y-46200000D02*
G75*
G02*
X79300000Y-45200000I1000000J0D01*
G01*
X135315000Y-50200000D02*
X122400000Y-50200000D01*
X184985000Y-51200000D02*
X184985000Y-53200000D01*
X237500000Y-144295087D02*
X237500000Y-132400000D01*
X21150000Y-59200000D02*
G75*
G02*
X22150000Y-58200000I1000000J0D01*
G01*
X266050000Y-50200000D02*
G75*
G02*
X267050000Y-51200000I0J-1000000D01*
G01*
X229950000Y-49200000D02*
G75*
G02*
X228950000Y-50200000I-1000000J0D01*
G01*
X211900000Y-50200000D02*
X228950000Y-50200000D01*
X20650000Y-118350000D02*
G75*
G02*
X21650000Y-117350000I1000000J0D01*
G01*
X89800000Y-128400000D02*
X95325000Y-128400000D01*
X268050000Y-118350000D02*
X268050000Y-144306500D01*
X236500000Y-128400000D02*
X230975000Y-128400000D01*
X20650000Y-150306460D02*
X20650000Y-118350000D01*
X291850000Y-58200000D02*
X291850000Y-56200000D01*
X156230000Y-117871200D02*
G75*
G02*
X156096050Y-118371157I-1000000J0D01*
G01*
X225975000Y-130400000D02*
G75*
G02*
X224975000Y-131400000I-1000000J0D01*
G01*
X268050000Y-118350000D02*
G75*
G02*
X269050000Y-117350000I1000000J0D01*
G01*
X141315000Y-51200000D02*
G75*
G02*
X142315000Y-50200000I1000000J0D01*
G01*
X53250000Y-43200000D02*
G75*
G02*
X54250000Y-42200000I1000000J0D01*
G01*
X229950000Y-46200000D02*
G75*
G02*
X230950000Y-45200000I1000000J0D01*
G01*
X33450000Y-55200000D02*
X21650000Y-55200000D01*
X204900000Y-49200000D02*
X204900000Y-43200000D01*
X267050000Y-106350000D02*
G75*
G02*
X268050000Y-107350000I0J-1000000D01*
G01*
M02*
