G04 #@! TF.GenerationSoftware,KiCad,Pcbnew,8.0.8*
G04 #@! TF.CreationDate,2025-03-03T09:41:38+03:00*
G04 #@! TF.ProjectId,KeebIsSplit,4b656562-4973-4537-906c-69742e6b6963,rev?*
G04 #@! TF.SameCoordinates,Original*
G04 #@! TF.FileFunction,Soldermask,Bot*
G04 #@! TF.FilePolarity,Negative*
%FSLAX46Y46*%
G04 Gerber Fmt 4.6, Leading zero omitted, Abs format (unit mm)*
G04 Created by KiCad (PCBNEW 8.0.8) date 2025-03-03 09:41:38*
%MOMM*%
%LPD*%
G01*
G04 APERTURE LIST*
G04 Aperture macros list*
%AMRoundRect*
0 Rectangle with rounded corners*
0 $1 Rounding radius*
0 $2 $3 $4 $5 $6 $7 $8 $9 X,Y pos of 4 corners*
0 Add a 4 corners polygon primitive as box body*
4,1,4,$2,$3,$4,$5,$6,$7,$8,$9,$2,$3,0*
0 Add four circle primitives for the rounded corners*
1,1,$1+$1,$2,$3*
1,1,$1+$1,$4,$5*
1,1,$1+$1,$6,$7*
1,1,$1+$1,$8,$9*
0 Add four rect primitives between the rounded corners*
20,1,$1+$1,$2,$3,$4,$5,0*
20,1,$1+$1,$4,$5,$6,$7,0*
20,1,$1+$1,$6,$7,$8,$9,0*
20,1,$1+$1,$8,$9,$2,$3,0*%
G04 Aperture macros list end*
%ADD10C,1.750000*%
%ADD11C,3.050000*%
%ADD12C,4.000000*%
%ADD13RoundRect,0.250000X-1.025000X-1.000000X1.025000X-1.000000X1.025000X1.000000X-1.025000X1.000000X0*%
%ADD14C,3.800000*%
%ADD15C,3.500000*%
%ADD16R,1.500000X1.600000*%
%ADD17C,1.600000*%
%ADD18C,3.000000*%
%ADD19C,0.500000*%
%ADD20RoundRect,0.250000X-1.248893X-0.700636X0.731255X-1.231215X1.248893X0.700636X-0.731255X1.231215X0*%
%ADD21R,2.250000X2.250000*%
%ADD22C,2.250000*%
%ADD23RoundRect,0.250000X-1.387676X-0.353525X0.387676X-1.378525X1.387676X0.353525X-0.387676X1.378525X0*%
%ADD24RoundRect,0.250000X-0.731255X-1.231215X1.248893X-0.700636X0.731255X1.231215X-1.248893X0.700636X0*%
%ADD25RoundRect,0.250000X-0.387676X-1.378525X1.387676X-0.353525X0.387676X1.378525X-1.387676X0.353525X0*%
%ADD26RoundRect,0.225000X0.375000X-0.225000X0.375000X0.225000X-0.375000X0.225000X-0.375000X-0.225000X0*%
%ADD27R,1.752600X1.752600*%
%ADD28C,1.752600*%
%ADD29RoundRect,0.225000X0.212260X-0.382356X0.437260X0.007356X-0.212260X0.382356X-0.437260X-0.007356X0*%
%ADD30RoundRect,0.225000X0.437260X-0.007356X0.212260X0.382356X-0.437260X0.007356X-0.212260X-0.382356X0*%
%ADD31RoundRect,0.225000X0.303988X-0.314390X0.420456X0.120276X-0.303988X0.314390X-0.420456X-0.120276X0*%
%ADD32RoundRect,0.225000X0.420456X-0.120276X0.303988X0.314390X-0.420456X0.120276X-0.303988X-0.314390X0*%
G04 APERTURE END LIST*
D10*
X63195000Y-97325000D03*
D11*
X64465000Y-94785000D03*
D12*
X68275000Y-97325000D03*
D11*
X70815000Y-92245000D03*
D10*
X73355000Y-97325000D03*
D13*
X61190000Y-94785000D03*
X74117000Y-92245000D03*
D10*
X101295000Y-78275000D03*
D11*
X102565000Y-75735000D03*
D12*
X106375000Y-78275000D03*
D11*
X108915000Y-73195000D03*
D10*
X111455000Y-78275000D03*
D13*
X99290000Y-75735000D03*
X112217000Y-73195000D03*
D14*
X187570000Y-110950000D03*
D10*
X82245000Y-73275000D03*
D11*
X83515000Y-70735000D03*
D12*
X87325000Y-73275000D03*
D11*
X89865000Y-68195000D03*
D10*
X92405000Y-73275000D03*
D13*
X80240000Y-70735000D03*
X93167000Y-68195000D03*
D15*
X286600000Y-76750000D03*
D16*
X142620000Y-100875000D03*
D17*
X142620000Y-98375000D03*
X142620000Y-96375000D03*
X142620000Y-93875000D03*
D18*
X145330000Y-103945000D03*
X145330000Y-90805000D03*
D19*
X136950000Y-53200000D03*
X137700000Y-53200000D03*
X138450000Y-53200000D03*
X139200000Y-53200000D03*
X139950000Y-53200000D03*
X140700000Y-53200000D03*
D15*
X210400000Y-70250000D03*
D19*
X185600000Y-53200000D03*
X186350000Y-53200000D03*
X187100000Y-53200000D03*
X187850000Y-53200000D03*
X188600000Y-53200000D03*
X189350000Y-53200000D03*
D10*
X195795000Y-81275000D03*
D11*
X197065000Y-78735000D03*
D12*
X200875000Y-81275000D03*
D11*
X203415000Y-76195000D03*
D10*
X205955000Y-81275000D03*
D13*
X193790000Y-78735000D03*
X206717000Y-76195000D03*
D10*
X291045000Y-86275000D03*
D11*
X292315000Y-83735000D03*
D12*
X296125000Y-86275000D03*
D11*
X298665000Y-81195000D03*
D10*
X301205000Y-86275000D03*
D13*
X289040000Y-83735000D03*
X301967000Y-81195000D03*
D10*
X291045000Y-67225000D03*
D11*
X292315000Y-64685000D03*
D12*
X296125000Y-67225000D03*
D11*
X298665000Y-62145000D03*
D10*
X301205000Y-67225000D03*
D13*
X289040000Y-64685000D03*
X301967000Y-62145000D03*
D19*
X35100000Y-58200000D03*
X35850000Y-58200000D03*
X36600000Y-58200000D03*
X37350000Y-58200000D03*
X38100000Y-58200000D03*
X38850000Y-58200000D03*
D10*
X114108792Y-120850007D03*
D11*
X115992918Y-118725256D03*
D12*
X119015695Y-122164808D03*
D11*
X122783947Y-117915305D03*
D10*
X123922598Y-123479609D03*
D20*
X112829511Y-117877623D03*
X125973434Y-118769926D03*
D10*
X44145000Y-86275000D03*
D11*
X45415000Y-83735000D03*
D12*
X49225000Y-86275000D03*
D11*
X51765000Y-81195000D03*
D10*
X54305000Y-86275000D03*
D13*
X42140000Y-83735000D03*
X55067000Y-81195000D03*
D15*
X233450000Y-105850000D03*
D10*
X63195000Y-78275000D03*
D11*
X64465000Y-75735000D03*
D12*
X68275000Y-78275000D03*
D11*
X70815000Y-73195000D03*
D10*
X73355000Y-78275000D03*
D13*
X61190000Y-75735000D03*
X74117000Y-73195000D03*
D10*
X195795000Y-62225000D03*
D11*
X197065000Y-59685000D03*
D12*
X200875000Y-62225000D03*
D11*
X203415000Y-57145000D03*
D10*
X205955000Y-62225000D03*
D13*
X193790000Y-59685000D03*
X206717000Y-57145000D03*
D10*
X195795000Y-100325000D03*
D11*
X197065000Y-97785000D03*
D12*
X200875000Y-100325000D03*
D11*
X203415000Y-95245000D03*
D10*
X205955000Y-100325000D03*
D13*
X193790000Y-97785000D03*
X206717000Y-95245000D03*
D14*
X138730000Y-110950000D03*
D16*
X183680000Y-93875000D03*
D17*
X183680000Y-96375000D03*
X183680000Y-98375000D03*
X183680000Y-100875000D03*
D18*
X180970000Y-90805000D03*
X180970000Y-103945000D03*
D15*
X193871562Y-117709469D03*
D10*
X101295000Y-59225000D03*
D11*
X102565000Y-56685000D03*
D12*
X106375000Y-59225000D03*
D11*
X108915000Y-54145000D03*
D10*
X111455000Y-59225000D03*
D13*
X99290000Y-56685000D03*
X112217000Y-54145000D03*
D10*
X25095000Y-67225000D03*
D11*
X26365000Y-64685000D03*
D12*
X30175000Y-67225000D03*
D11*
X32715000Y-62145000D03*
D10*
X35255000Y-67225000D03*
D13*
X23090000Y-64685000D03*
X36017000Y-62145000D03*
D10*
X252945000Y-97325000D03*
D11*
X254215000Y-94785000D03*
D12*
X258025000Y-97325000D03*
D11*
X260565000Y-92245000D03*
D10*
X263105000Y-97325000D03*
D13*
X250940000Y-94785000D03*
X263867000Y-92245000D03*
D10*
X25095000Y-86275000D03*
D11*
X26365000Y-83735000D03*
D12*
X30175000Y-86275000D03*
D11*
X32715000Y-81195000D03*
D10*
X35255000Y-86275000D03*
D13*
X23090000Y-83735000D03*
X36017000Y-81195000D03*
D14*
X173570000Y-119032904D03*
D10*
X92745000Y-119375000D03*
D11*
X94015000Y-116835000D03*
D12*
X97825000Y-119375000D03*
D11*
X100365000Y-114295000D03*
D10*
X102905000Y-119375000D03*
D13*
X90740000Y-116835000D03*
X103667000Y-114295000D03*
D10*
X223395000Y-119375000D03*
D11*
X224665000Y-116835000D03*
D12*
X228475000Y-119375000D03*
D11*
X231015000Y-114295000D03*
D10*
X233555000Y-119375000D03*
D13*
X221390000Y-116835000D03*
X234317000Y-114295000D03*
D10*
X252945000Y-78275000D03*
D11*
X254215000Y-75735000D03*
D12*
X258025000Y-78275000D03*
D11*
X260565000Y-73195000D03*
D10*
X263105000Y-78275000D03*
D13*
X250940000Y-75735000D03*
X263867000Y-73195000D03*
D19*
X287450000Y-58200000D03*
X288200000Y-58200000D03*
X288950000Y-58200000D03*
X289700000Y-58200000D03*
X290450000Y-58200000D03*
X291200000Y-58200000D03*
D15*
X39700000Y-76750000D03*
X286600000Y-95800000D03*
D10*
X271995000Y-105325000D03*
D11*
X273265000Y-102785000D03*
D12*
X277075000Y-105325000D03*
D11*
X279615000Y-100245000D03*
D10*
X282155000Y-105325000D03*
D13*
X269990000Y-102785000D03*
X282917000Y-100245000D03*
D21*
X153980000Y-113450000D03*
D22*
X147480000Y-113450000D03*
D10*
X214845000Y-59225000D03*
D11*
X216115000Y-56685000D03*
D12*
X219925000Y-59225000D03*
D11*
X222465000Y-54145000D03*
D10*
X225005000Y-59225000D03*
D13*
X212840000Y-56685000D03*
X225767000Y-54145000D03*
D10*
X44145000Y-105325000D03*
D11*
X45415000Y-102785000D03*
D12*
X49225000Y-105325000D03*
D11*
X51765000Y-100245000D03*
D10*
X54305000Y-105325000D03*
D13*
X42140000Y-102785000D03*
X55067000Y-100245000D03*
D15*
X39700000Y-95800000D03*
D10*
X233895000Y-54225000D03*
D11*
X235165000Y-51685000D03*
D12*
X238975000Y-54225000D03*
D11*
X241515000Y-49145000D03*
D10*
X244055000Y-54225000D03*
D13*
X231890000Y-51685000D03*
X244817000Y-49145000D03*
D19*
X37800000Y-114350000D03*
X38550000Y-114350000D03*
X39300000Y-114350000D03*
X40050000Y-114350000D03*
X40800000Y-114350000D03*
X41550000Y-114350000D03*
X284700000Y-114350000D03*
X285450000Y-114350000D03*
X286200000Y-114350000D03*
X286950000Y-114350000D03*
X287700000Y-114350000D03*
X288450000Y-114350000D03*
D10*
X214845000Y-78275000D03*
D11*
X216115000Y-75735000D03*
D12*
X219925000Y-78275000D03*
D11*
X222465000Y-73195000D03*
D10*
X225005000Y-78275000D03*
D13*
X212840000Y-75735000D03*
X225767000Y-73195000D03*
D10*
X252945000Y-59225000D03*
D11*
X254215000Y-56685000D03*
D12*
X258025000Y-59225000D03*
D11*
X260565000Y-54145000D03*
D10*
X263105000Y-59225000D03*
D13*
X250940000Y-56685000D03*
X263867000Y-54145000D03*
D14*
X152730000Y-119032904D03*
D10*
X134362870Y-127804111D03*
D11*
X136732722Y-126239406D03*
D12*
X138762279Y-130344111D03*
D11*
X143501984Y-127214702D03*
D10*
X143161688Y-132884111D03*
D23*
X133896489Y-124601906D03*
X146361599Y-128865702D03*
D10*
X101295000Y-97325000D03*
D11*
X102565000Y-94785000D03*
D12*
X106375000Y-97325000D03*
D11*
X108915000Y-92245000D03*
D10*
X111455000Y-97325000D03*
D13*
X99290000Y-94785000D03*
X112217000Y-92245000D03*
D10*
X82245000Y-54225000D03*
D11*
X83515000Y-51685000D03*
D12*
X87325000Y-54225000D03*
D11*
X89865000Y-49145000D03*
D10*
X92405000Y-54225000D03*
D13*
X80240000Y-51685000D03*
X93167000Y-49145000D03*
D10*
X271995000Y-67225000D03*
D11*
X273265000Y-64685000D03*
D12*
X277075000Y-67225000D03*
D11*
X279615000Y-62145000D03*
D10*
X282155000Y-67225000D03*
D13*
X269990000Y-64685000D03*
X282917000Y-62145000D03*
D10*
X291045000Y-105325000D03*
D11*
X292315000Y-102785000D03*
D12*
X296125000Y-105325000D03*
D11*
X298665000Y-100245000D03*
D10*
X301205000Y-105325000D03*
D13*
X289040000Y-102785000D03*
X301967000Y-100245000D03*
D19*
X226600000Y-128400000D03*
X227350000Y-128400000D03*
X228100000Y-128400000D03*
X228850000Y-128400000D03*
X229600000Y-128400000D03*
X230350000Y-128400000D03*
D21*
X172320000Y-113450000D03*
D22*
X178820000Y-113450000D03*
D10*
X120345000Y-81275000D03*
D11*
X121615000Y-78735000D03*
D12*
X125425000Y-81275000D03*
D11*
X127965000Y-76195000D03*
D10*
X130505000Y-81275000D03*
D13*
X118340000Y-78735000D03*
X131267000Y-76195000D03*
D10*
X82245000Y-92325000D03*
D11*
X83515000Y-89785000D03*
D12*
X87325000Y-92325000D03*
D11*
X89865000Y-87245000D03*
D10*
X92405000Y-92325000D03*
D13*
X80240000Y-89785000D03*
X93167000Y-87245000D03*
D19*
X95950000Y-128400000D03*
X96700000Y-128400000D03*
X97450000Y-128400000D03*
X98200000Y-128400000D03*
X98950000Y-128400000D03*
X99700000Y-128400000D03*
D10*
X271995000Y-86275000D03*
D11*
X273265000Y-83735000D03*
D12*
X277075000Y-86275000D03*
D11*
X279615000Y-81195000D03*
D10*
X282155000Y-86275000D03*
D13*
X269990000Y-83735000D03*
X282917000Y-81195000D03*
D10*
X120345000Y-62225000D03*
D11*
X121615000Y-59685000D03*
D12*
X125425000Y-62225000D03*
D11*
X127965000Y-57145000D03*
D10*
X130505000Y-62225000D03*
D13*
X118340000Y-59685000D03*
X131267000Y-57145000D03*
D10*
X202377402Y-123479608D03*
D11*
X202946727Y-120697457D03*
D12*
X207284305Y-122164808D03*
D11*
X208422955Y-116600504D03*
D10*
X212191208Y-120850008D03*
D24*
X199783320Y-121545089D03*
X211612443Y-115745884D03*
D15*
X92850000Y-105850000D03*
D10*
X44145000Y-67225000D03*
D11*
X45415000Y-64685000D03*
D12*
X49225000Y-67225000D03*
D11*
X51765000Y-62145000D03*
D10*
X54305000Y-67225000D03*
D13*
X42140000Y-64685000D03*
X55067000Y-62145000D03*
D15*
X132428438Y-117709469D03*
D10*
X233895000Y-92325000D03*
D11*
X235165000Y-89785000D03*
D12*
X238975000Y-92325000D03*
D11*
X241515000Y-87245000D03*
D10*
X244055000Y-92325000D03*
D13*
X231890000Y-89785000D03*
X244817000Y-87245000D03*
D10*
X25095000Y-105325000D03*
D11*
X26365000Y-102785000D03*
D12*
X30175000Y-105325000D03*
D11*
X32715000Y-100245000D03*
D10*
X35255000Y-105325000D03*
D13*
X23090000Y-102785000D03*
X36017000Y-100245000D03*
D10*
X63195000Y-59225000D03*
D11*
X64465000Y-56685000D03*
D12*
X68275000Y-59225000D03*
D11*
X70815000Y-54145000D03*
D10*
X73355000Y-59225000D03*
D13*
X61190000Y-56685000D03*
X74117000Y-54145000D03*
D15*
X115900000Y-70250000D03*
D10*
X120345000Y-100325000D03*
D11*
X121615000Y-97785000D03*
D12*
X125425000Y-100325000D03*
D11*
X127965000Y-95245000D03*
D10*
X130505000Y-100325000D03*
D13*
X118340000Y-97785000D03*
X131267000Y-95245000D03*
D10*
X214845000Y-97325000D03*
D11*
X216115000Y-94785000D03*
D12*
X219925000Y-97325000D03*
D11*
X222465000Y-92245000D03*
D10*
X225005000Y-97325000D03*
D13*
X212840000Y-94785000D03*
X225767000Y-92245000D03*
D10*
X183138312Y-132884111D03*
D11*
X182968164Y-130049406D03*
D12*
X187537721Y-130344111D03*
D11*
X187197426Y-124674702D03*
D10*
X191937130Y-127804111D03*
D25*
X180131931Y-131686906D03*
X190057041Y-123023702D03*
D10*
X233895000Y-73275000D03*
D11*
X235165000Y-70735000D03*
D12*
X238975000Y-73275000D03*
D11*
X241515000Y-68195000D03*
D10*
X244055000Y-73275000D03*
D13*
X231890000Y-70735000D03*
X244817000Y-68195000D03*
D26*
X282825000Y-111525000D03*
X282825000Y-108225000D03*
X35925000Y-73425000D03*
X35925000Y-70125000D03*
X112125000Y-65425000D03*
X112125000Y-62125000D03*
X206625000Y-106525000D03*
X206625000Y-103225000D03*
X54975000Y-111525000D03*
X54975000Y-108225000D03*
X93075000Y-79475000D03*
X93075000Y-76175000D03*
X74025000Y-84475000D03*
X74025000Y-81175000D03*
X131175000Y-68425000D03*
X131175000Y-65125000D03*
D27*
X154460000Y-57510000D03*
D28*
X154460000Y-60050000D03*
X154460000Y-62590000D03*
X154460000Y-65130000D03*
X154460000Y-67670000D03*
X154460000Y-70210000D03*
X154460000Y-72750000D03*
X154460000Y-75290000D03*
X154460000Y-77830000D03*
X154460000Y-80370000D03*
X154460000Y-82910000D03*
X154460000Y-85450000D03*
X139220000Y-85450000D03*
X139220000Y-82910000D03*
X139220000Y-80370000D03*
X139220000Y-77830000D03*
X139220000Y-75290000D03*
X139220000Y-72750000D03*
X139220000Y-70210000D03*
X139220000Y-67670000D03*
X139220000Y-65130000D03*
X139220000Y-62590000D03*
X139220000Y-60050000D03*
X139220000Y-57510000D03*
D26*
X35925000Y-111525000D03*
X35925000Y-108225000D03*
X131175000Y-87475000D03*
X131175000Y-84175000D03*
X244725000Y-79475000D03*
X244725000Y-76175000D03*
X263775000Y-103525000D03*
X263775000Y-100225000D03*
D29*
X140654071Y-138618782D03*
X142304071Y-135760898D03*
D26*
X74025000Y-65425000D03*
X74025000Y-62125000D03*
X206625000Y-87475000D03*
X206625000Y-84175000D03*
X244725000Y-60425000D03*
X244725000Y-57125000D03*
X225675000Y-65425000D03*
X225675000Y-62125000D03*
X93075000Y-60425000D03*
X93075000Y-57125000D03*
X263775000Y-65425000D03*
X263775000Y-62125000D03*
X244725000Y-98525000D03*
X244725000Y-95225000D03*
X74025000Y-103525000D03*
X74025000Y-100225000D03*
X35925000Y-92475000D03*
X35925000Y-89175000D03*
X301875000Y-111525000D03*
X301875000Y-108225000D03*
X131175000Y-106525000D03*
X131175000Y-103225000D03*
X93075000Y-98525000D03*
X93075000Y-95225000D03*
X54975000Y-92475000D03*
X54975000Y-89175000D03*
X206625000Y-68425000D03*
X206625000Y-65125000D03*
X112125000Y-103525000D03*
X112125000Y-100225000D03*
X54975000Y-73425000D03*
X54975000Y-70125000D03*
X225675000Y-84475000D03*
X225675000Y-81175000D03*
X301875000Y-73425000D03*
X301875000Y-70125000D03*
X225675000Y-103525000D03*
X225675000Y-100225000D03*
D27*
X187080000Y-57510000D03*
D28*
X187080000Y-60050000D03*
X187080000Y-62590000D03*
X187080000Y-65130000D03*
X187080000Y-67670000D03*
X187080000Y-70210000D03*
X187080000Y-72750000D03*
X187080000Y-75290000D03*
X187080000Y-77830000D03*
X187080000Y-80370000D03*
X187080000Y-82910000D03*
X187080000Y-85450000D03*
X171840000Y-85450000D03*
X171840000Y-82910000D03*
X171840000Y-80370000D03*
X171840000Y-77830000D03*
X171840000Y-75290000D03*
X171840000Y-72750000D03*
X171840000Y-70210000D03*
X171840000Y-67670000D03*
X171840000Y-65130000D03*
X171840000Y-62590000D03*
X171840000Y-60050000D03*
X171840000Y-57510000D03*
D26*
X112125000Y-84475000D03*
X112125000Y-81175000D03*
X263775000Y-84475000D03*
X263775000Y-81175000D03*
X282825000Y-73425000D03*
X282825000Y-70125000D03*
X301875000Y-92475000D03*
X301875000Y-89175000D03*
D30*
X195604071Y-132818782D03*
X193954071Y-129960898D03*
D26*
X282825000Y-92475000D03*
X282825000Y-89175000D03*
D31*
X122970359Y-129626211D03*
X123824463Y-126438653D03*
D32*
X214458011Y-126671494D03*
X213603911Y-123483938D03*
D26*
X234225000Y-125575000D03*
X234225000Y-122275000D03*
X103575000Y-125575000D03*
X103575000Y-122275000D03*
M02*
