G04 #@! TF.GenerationSoftware,KiCad,Pcbnew,8.0.8*
G04 #@! TF.CreationDate,2025-03-03T09:41:38+03:00*
G04 #@! TF.ProjectId,KeebIsSplit,4b656562-4973-4537-906c-69742e6b6963,rev?*
G04 #@! TF.SameCoordinates,Original*
G04 #@! TF.FileFunction,Copper,L1,Top*
G04 #@! TF.FilePolarity,Positive*
%FSLAX46Y46*%
G04 Gerber Fmt 4.6, Leading zero omitted, Abs format (unit mm)*
G04 Created by KiCad (PCBNEW 8.0.8) date 2025-03-03 09:41:38*
%MOMM*%
%LPD*%
G01*
G04 APERTURE LIST*
G04 #@! TA.AperFunction,ComponentPad*
%ADD10C,3.800000*%
G04 #@! TD*
G04 #@! TA.AperFunction,ComponentPad*
%ADD11R,1.500000X1.600000*%
G04 #@! TD*
G04 #@! TA.AperFunction,ComponentPad*
%ADD12C,1.600000*%
G04 #@! TD*
G04 #@! TA.AperFunction,ComponentPad*
%ADD13C,3.000000*%
G04 #@! TD*
G04 #@! TA.AperFunction,ComponentPad*
%ADD14R,2.250000X2.250000*%
G04 #@! TD*
G04 #@! TA.AperFunction,ComponentPad*
%ADD15C,2.250000*%
G04 #@! TD*
G04 #@! TA.AperFunction,ComponentPad*
%ADD16R,1.752600X1.752600*%
G04 #@! TD*
G04 #@! TA.AperFunction,ComponentPad*
%ADD17C,1.752600*%
G04 #@! TD*
G04 #@! TA.AperFunction,ViaPad*
%ADD18C,0.600000*%
G04 #@! TD*
G04 #@! TA.AperFunction,Conductor*
%ADD19C,0.254000*%
G04 #@! TD*
G04 #@! TA.AperFunction,Conductor*
%ADD20C,0.508000*%
G04 #@! TD*
G04 APERTURE END LIST*
D10*
X187570000Y-110950000D03*
D11*
X142620000Y-100875000D03*
D12*
X142620000Y-98375000D03*
X142620000Y-96375000D03*
X142620000Y-93875000D03*
D13*
X145330000Y-103945000D03*
X145330000Y-90805000D03*
D10*
X138730000Y-110950000D03*
D11*
X183680000Y-93875000D03*
D12*
X183680000Y-96375000D03*
X183680000Y-98375000D03*
X183680000Y-100875000D03*
D13*
X180970000Y-90805000D03*
X180970000Y-103945000D03*
D10*
X173570000Y-119032904D03*
D14*
X153980000Y-113450000D03*
D15*
X147480000Y-113450000D03*
D10*
X152730000Y-119032904D03*
D14*
X172320000Y-113450000D03*
D15*
X178820000Y-113450000D03*
D16*
X154460000Y-57510000D03*
D17*
X154460000Y-60050000D03*
X154460000Y-62590000D03*
X154460000Y-65130000D03*
X154460000Y-67670000D03*
X154460000Y-70210000D03*
X154460000Y-72750000D03*
X154460000Y-75290000D03*
X154460000Y-77830000D03*
X154460000Y-80370000D03*
X154460000Y-82910000D03*
X154460000Y-85450000D03*
X139220000Y-85450000D03*
X139220000Y-82910000D03*
X139220000Y-80370000D03*
X139220000Y-77830000D03*
X139220000Y-75290000D03*
X139220000Y-72750000D03*
X139220000Y-70210000D03*
X139220000Y-67670000D03*
X139220000Y-65130000D03*
X139220000Y-62590000D03*
X139220000Y-60050000D03*
X139220000Y-57510000D03*
D16*
X187080000Y-57510000D03*
D17*
X187080000Y-60050000D03*
X187080000Y-62590000D03*
X187080000Y-65130000D03*
X187080000Y-67670000D03*
X187080000Y-70210000D03*
X187080000Y-72750000D03*
X187080000Y-75290000D03*
X187080000Y-77830000D03*
X187080000Y-80370000D03*
X187080000Y-82910000D03*
X187080000Y-85450000D03*
X171840000Y-85450000D03*
X171840000Y-82910000D03*
X171840000Y-80370000D03*
X171840000Y-77830000D03*
X171840000Y-75290000D03*
X171840000Y-72750000D03*
X171840000Y-70210000D03*
X171840000Y-67670000D03*
X171840000Y-65130000D03*
X171840000Y-62590000D03*
X171840000Y-60050000D03*
X171840000Y-57510000D03*
D18*
X97500000Y-61850000D03*
X99550000Y-63900000D03*
X58750000Y-72050000D03*
X45400000Y-73400000D03*
X78650000Y-64650000D03*
X117050000Y-65450000D03*
X41350000Y-73400000D03*
X80650000Y-62650000D03*
X62050000Y-68850000D03*
X119750000Y-65425000D03*
X116600000Y-84475000D03*
X78600000Y-79850000D03*
X62100000Y-87850000D03*
X45350000Y-92450000D03*
X41400000Y-92450000D03*
X58750000Y-91250000D03*
X80800000Y-77650000D03*
X99650000Y-83250000D03*
X97750000Y-81300000D03*
X119950000Y-84550000D03*
X28350000Y-89700000D03*
X48300000Y-90500000D03*
X68516727Y-83566727D03*
X126000000Y-89250000D03*
X127500000Y-111400000D03*
X120350000Y-104250000D03*
X100800000Y-100900000D03*
X108850000Y-88000000D03*
X111350000Y-111450000D03*
X147000000Y-82000000D03*
X150425000Y-89675000D03*
X89350000Y-83350000D03*
X79700000Y-94200000D03*
X85800000Y-103700000D03*
X249850000Y-61900000D03*
X251975000Y-64025000D03*
X287900000Y-73425000D03*
X232950000Y-61950000D03*
X270875000Y-70375000D03*
X290450000Y-73425000D03*
X192550000Y-68425000D03*
X195100000Y-68425000D03*
X209300000Y-66400000D03*
X269075000Y-68575000D03*
X214100000Y-65425000D03*
X230950000Y-63950000D03*
X251700000Y-82400000D03*
X232517000Y-79850000D03*
X269075000Y-87725000D03*
X231200000Y-81200000D03*
X194650000Y-86450000D03*
X192900000Y-84700000D03*
X270775000Y-89425000D03*
X214450000Y-84475000D03*
X210400000Y-85700000D03*
X287800000Y-92475000D03*
X290400000Y-92475000D03*
X250000000Y-80650000D03*
X178100000Y-89450000D03*
X178100000Y-94800000D03*
X223800000Y-107750000D03*
X229700000Y-101850000D03*
X228650000Y-89700000D03*
X193790000Y-103260000D03*
X193790000Y-108910000D03*
X193250000Y-92900000D03*
X183400000Y-82150000D03*
X286350000Y-81500000D03*
X210550000Y-105300000D03*
X212200000Y-92400000D03*
X204250000Y-111600000D03*
X267496000Y-84046000D03*
X250200000Y-90450000D03*
D19*
X61950000Y-68850000D02*
X62050000Y-68850000D01*
X45400000Y-73400000D02*
X41350000Y-73400000D01*
X78650000Y-64650000D02*
X80650000Y-62650000D01*
X99550000Y-63900000D02*
X97500000Y-61850000D01*
X119750000Y-65425000D02*
X117075000Y-65425000D01*
X117075000Y-65425000D02*
X117050000Y-65450000D01*
X58750000Y-72050000D02*
X61950000Y-68850000D01*
X62100000Y-87850000D02*
X58750000Y-91200000D01*
X99650000Y-83200000D02*
X97750000Y-81300000D01*
X58750000Y-91200000D02*
X58750000Y-91250000D01*
X119950000Y-84550000D02*
X119875000Y-84475000D01*
X99650000Y-83250000D02*
X99650000Y-83200000D01*
X80800000Y-77650000D02*
X78600000Y-79850000D01*
X45350000Y-92450000D02*
X41400000Y-92450000D01*
X119875000Y-84475000D02*
X116600000Y-84475000D01*
X145330000Y-91165000D02*
X145330000Y-90805000D01*
D20*
X146923792Y-72666207D02*
X154460000Y-65130000D01*
X145330000Y-76513963D02*
X145330000Y-90805000D01*
X154460000Y-62590000D02*
X154460000Y-65130000D01*
X145330000Y-90805000D02*
X145330000Y-103945000D01*
X146405000Y-112375000D02*
X147480000Y-113450000D01*
X145330000Y-109779720D02*
X145330000Y-103945000D01*
X142620000Y-93875000D02*
X145330000Y-91165000D01*
X146923792Y-72666207D02*
G75*
G03*
X145329959Y-76513963I3847708J-3847793D01*
G01*
X145330000Y-109779720D02*
G75*
G03*
X146405006Y-112374994I3670300J20D01*
G01*
X140493792Y-98748792D02*
X142620000Y-100875000D01*
X142450000Y-85246036D02*
X142450000Y-70613963D01*
X140493792Y-89456206D02*
X140856207Y-89093792D01*
X139220000Y-65130000D02*
X140856207Y-66766207D01*
X138900000Y-94901036D02*
X138900000Y-93303963D01*
X140856207Y-66766207D02*
G75*
G02*
X142450011Y-70613963I-3847807J-3847793D01*
G01*
X140493792Y-89456206D02*
G75*
G03*
X138899988Y-93303963I3847808J-3847794D01*
G01*
X138900000Y-94901036D02*
G75*
G03*
X140493800Y-98748784I5441600J36D01*
G01*
X142450000Y-85246036D02*
G75*
G02*
X140856200Y-89093785I-5441600J36D01*
G01*
D19*
X141742783Y-95497783D02*
X142620000Y-96375000D01*
X143550000Y-86055439D02*
X143550000Y-73213963D01*
X142145270Y-89404729D02*
X141999225Y-89550772D01*
X142174999Y-89374999D02*
X142145270Y-89404729D01*
X145143792Y-69366207D02*
X154460000Y-60050000D01*
X140800000Y-92445932D02*
X140800000Y-93221703D01*
X140800000Y-93221703D02*
G75*
G03*
X141742777Y-95497789I3218900J3D01*
G01*
X143550000Y-86055439D02*
G75*
G02*
X142174983Y-89374983I-4694600J39D01*
G01*
X141999225Y-89550772D02*
G75*
G03*
X140800037Y-92445932I2895175J-2895128D01*
G01*
X143550000Y-73213963D02*
G75*
G02*
X145143821Y-69366236I5441500J-37D01*
G01*
X99056207Y-83956207D02*
X98143792Y-83043792D01*
X133650000Y-80118054D02*
X133650000Y-75493963D01*
X53796036Y-89700000D02*
X28350000Y-89700000D01*
X135243792Y-71646207D02*
X139220000Y-67670000D01*
X102903963Y-85550000D02*
X127303984Y-85550000D01*
X66553963Y-81450000D02*
X94296036Y-81450000D01*
X57643792Y-88106207D02*
X62706207Y-83043792D01*
X131151740Y-83956206D02*
X132702554Y-82405392D01*
X57643792Y-88106207D02*
G75*
G02*
X53796036Y-89700010I-3847792J3847807D01*
G01*
X131151740Y-83956206D02*
G75*
G02*
X127303984Y-85549973I-3847740J3847806D01*
G01*
X66553963Y-81450000D02*
G75*
G03*
X62706236Y-83043821I37J-5441500D01*
G01*
X98143792Y-83043792D02*
G75*
G03*
X94296036Y-81449989I-3847792J-3847808D01*
G01*
X135243792Y-71646207D02*
G75*
G03*
X133649959Y-75493963I3847708J-3847793D01*
G01*
X99056207Y-83956207D02*
G75*
G03*
X102903963Y-85550011I3847793J3847807D01*
G01*
X133650000Y-80118054D02*
G75*
G02*
X132702580Y-82405418I-3234800J-46D01*
G01*
X131339792Y-84410206D02*
X133100366Y-82649632D01*
X97955740Y-83497792D02*
X98868155Y-84410207D01*
X57485844Y-88906207D02*
X62894259Y-83497792D01*
X134104000Y-80226645D02*
X134104000Y-77579963D01*
X66742015Y-81904000D02*
X94107984Y-81904000D01*
X102715911Y-86004000D02*
X127492036Y-86004000D01*
X135697792Y-73732207D02*
X139220000Y-70210000D01*
X53638088Y-90500000D02*
X48300000Y-90500000D01*
X131339792Y-84410206D02*
G75*
G02*
X127492036Y-86004010I-3847792J3847806D01*
G01*
X57485844Y-88906207D02*
G75*
G02*
X53638088Y-90499976I-3847744J3847807D01*
G01*
X135697792Y-73732207D02*
G75*
G03*
X134103959Y-77579963I3847708J-3847793D01*
G01*
X66742015Y-81904000D02*
G75*
G03*
X62894262Y-83497795I-15J-5441500D01*
G01*
X97955740Y-83497792D02*
G75*
G03*
X94107984Y-81904026I-3847740J-3847808D01*
G01*
X98868155Y-84410207D02*
G75*
G03*
X102715911Y-86003977I3847745J3847807D01*
G01*
X134104000Y-80226645D02*
G75*
G02*
X133100339Y-82649605I-3426600J45D01*
G01*
X75996699Y-82358000D02*
X93919931Y-82358000D01*
X136124241Y-75845758D02*
X139220000Y-72750000D01*
X102527858Y-86458000D02*
X127688036Y-86458000D01*
X134558000Y-79627000D02*
X134558000Y-80563905D01*
X73078573Y-83566727D02*
X68516727Y-83566727D01*
X97767687Y-83951792D02*
X98680102Y-84864207D01*
X131535792Y-84864206D02*
X133654252Y-82745746D01*
X134558000Y-80563905D02*
G75*
G02*
X133654252Y-82745746I-3085600J5D01*
G01*
X98680102Y-84864207D02*
G75*
G03*
X102527858Y-86458014I3847798J3847807D01*
G01*
X74537636Y-82962363D02*
G75*
G02*
X73078573Y-83566708I-1459036J1459063D01*
G01*
X97767687Y-83951792D02*
G75*
G03*
X93919931Y-82357993I-3847787J-3847808D01*
G01*
X131535792Y-84864206D02*
G75*
G02*
X127688036Y-86458010I-3847792J3847806D01*
G01*
X136124241Y-75845758D02*
G75*
G03*
X134558004Y-79627000I3781259J-3781242D01*
G01*
X75996699Y-82358000D02*
G75*
G03*
X74537642Y-82962369I1J-2063400D01*
G01*
X139220000Y-80400000D02*
X139220000Y-80430000D01*
X127550000Y-89250000D02*
X126000000Y-89250000D01*
X130196015Y-88153984D02*
X137541593Y-80808406D01*
X138600000Y-80370000D02*
X139190000Y-80370000D01*
X120350000Y-104250000D02*
X127500000Y-111400000D01*
X138600000Y-80370000D02*
G75*
G03*
X137541596Y-80808409I0J-1496800D01*
G01*
X139220000Y-80400000D02*
G75*
G03*
X139190000Y-80370000I-30000J0D01*
G01*
X130196015Y-88153984D02*
G75*
G02*
X127550000Y-89250008I-2646015J2645984D01*
G01*
X138945000Y-77830000D02*
X139220000Y-77830000D01*
X131285844Y-86406207D02*
X135078559Y-82613492D01*
X100800000Y-100900000D02*
X111350000Y-111450000D01*
X138475545Y-78024454D02*
X135921407Y-80578592D01*
X127438088Y-88000000D02*
X108850000Y-88000000D01*
X138945000Y-77830000D02*
G75*
G03*
X138475547Y-78024456I0J-663900D01*
G01*
X135500000Y-81596026D02*
G75*
G02*
X135078539Y-82613472I-1438900J26D01*
G01*
X131285844Y-86406207D02*
G75*
G02*
X127438088Y-87999976I-3847744J3847807D01*
G01*
X135921407Y-80578592D02*
G75*
G03*
X135499978Y-81596026I1017393J-1017408D01*
G01*
X148502601Y-87752601D02*
X150425000Y-89675000D01*
X147000000Y-84125000D02*
X147000000Y-82000000D01*
X147000000Y-84125000D02*
G75*
G03*
X148502602Y-87752600I5130200J0D01*
G01*
X131731792Y-85318207D02*
X134303642Y-82746357D01*
X102339806Y-86912000D02*
X127884036Y-86912000D01*
X80902081Y-98802081D02*
X85800000Y-103700000D01*
X135910025Y-78599974D02*
X139220000Y-75290000D01*
X79700000Y-95900000D02*
X79700000Y-94200000D01*
X94269879Y-83350000D02*
X89350000Y-83350000D01*
X135012000Y-80768000D02*
X135012000Y-81036232D01*
X98492050Y-85318207D02*
X98117635Y-84943792D01*
X131731792Y-85318207D02*
G75*
G02*
X127884036Y-86912010I-3847792J3847807D01*
G01*
X135012000Y-81036232D02*
G75*
G02*
X134303630Y-82746345I-2418500J32D01*
G01*
X135910025Y-78599974D02*
G75*
G03*
X135011984Y-80768000I2167975J-2168026D01*
G01*
X98117635Y-84943792D02*
G75*
G03*
X94269879Y-83350029I-3847735J-3847808D01*
G01*
X98492050Y-85318207D02*
G75*
G03*
X102339806Y-86911981I3847750J3847807D01*
G01*
X79700000Y-95900000D02*
G75*
G03*
X80902073Y-98802089I4104200J0D01*
G01*
X251975000Y-64025000D02*
X249850000Y-61900000D01*
X232950000Y-61950000D02*
X230950000Y-63950000D01*
X290450000Y-73425000D02*
X287900000Y-73425000D01*
X209787500Y-65912500D02*
X209300000Y-66400000D01*
X195100000Y-68425000D02*
X192550000Y-68425000D01*
X210964429Y-65425000D02*
X214100000Y-65425000D01*
X270875000Y-70375000D02*
X269075000Y-68575000D01*
X210964429Y-65425000D02*
G75*
G03*
X209787491Y-65912491I-29J-1664400D01*
G01*
X231200000Y-81200000D02*
X232517000Y-79883000D01*
X212491205Y-84475000D02*
X214450000Y-84475000D01*
X290400000Y-92475000D02*
X287800000Y-92475000D01*
X211012500Y-85087500D02*
X210400000Y-85700000D01*
X194650000Y-86450000D02*
X192900000Y-84700000D01*
X251700000Y-82400000D02*
X250000000Y-80700000D01*
X232517000Y-79883000D02*
X232517000Y-79850000D01*
X250000000Y-80700000D02*
X250000000Y-80650000D01*
X270775000Y-89425000D02*
X269075000Y-87725000D01*
X212491205Y-84475000D02*
G75*
G03*
X211012498Y-85087498I-5J-2091200D01*
G01*
D20*
X180970000Y-103945000D02*
X180970000Y-103585000D01*
X182773948Y-60050000D02*
X171870000Y-60050000D01*
X187080000Y-62590000D02*
X187080000Y-65130000D01*
X185840000Y-61320000D02*
X187110000Y-62590000D01*
X180970000Y-90805000D02*
X180970000Y-103945000D01*
X180970000Y-109779720D02*
X180970000Y-103945000D01*
X179895000Y-112375000D02*
X178820000Y-113450000D01*
X180970000Y-103585000D02*
X183680000Y-100875000D01*
X185840000Y-61320000D02*
G75*
G03*
X182773948Y-60049980I-3066100J-3066100D01*
G01*
X180970000Y-109779720D02*
G75*
G02*
X179894994Y-112374994I-3670300J20D01*
G01*
D19*
X178100000Y-89450000D02*
X178100000Y-94800000D01*
X188305999Y-89712000D02*
X190350000Y-89712000D01*
X177399463Y-76899463D02*
X177186535Y-76686535D01*
X229700000Y-101850000D02*
X223800000Y-107750000D01*
X179503200Y-82953201D02*
X184816672Y-88266673D01*
X190350000Y-89712000D02*
X228638000Y-89712000D01*
X178796000Y-80271000D02*
X178796000Y-81245870D01*
X173815000Y-75290000D02*
X171840000Y-75290000D01*
X178796000Y-81245870D02*
G75*
G03*
X179503191Y-82953210I2414500J-30D01*
G01*
X184816672Y-88266673D02*
G75*
G03*
X188305999Y-89711987I3489328J3489373D01*
G01*
X177186535Y-76686535D02*
G75*
G03*
X173815000Y-75290008I-3371535J-3371565D01*
G01*
X177399463Y-76899463D02*
G75*
G02*
X178795992Y-80271000I-3371563J-3371537D01*
G01*
X176977946Y-81712051D02*
X184307595Y-89041700D01*
X188117947Y-90620000D02*
X191280000Y-90620000D01*
X192808058Y-91158058D02*
X192620017Y-90970017D01*
X193250000Y-92225000D02*
X193250000Y-92850000D01*
X171840000Y-80370000D02*
X173737947Y-80370000D01*
X191775000Y-90620000D02*
X191280000Y-90620000D01*
X193790000Y-108910000D02*
X193790000Y-103260000D01*
X192808058Y-91158058D02*
G75*
G02*
X193249995Y-92225000I-1066958J-1066942D01*
G01*
X173737947Y-80370000D02*
G75*
G02*
X176977962Y-81712035I53J-4582000D01*
G01*
X192620017Y-90970017D02*
G75*
G03*
X191775000Y-90619990I-845017J-844983D01*
G01*
X184307595Y-89041700D02*
G75*
G03*
X188117947Y-90619952I3810305J3810400D01*
G01*
X178176253Y-62590000D02*
X171840000Y-62590000D01*
X183400000Y-67813746D02*
X183400000Y-82150000D01*
X181870000Y-64120000D02*
G75*
G02*
X183400022Y-67813746I-3693800J-3693800D01*
G01*
X181870000Y-64120000D02*
G75*
G03*
X178176253Y-62590019I-3693700J-3693700D01*
G01*
X188588078Y-88350000D02*
X190350000Y-88350000D01*
X225709687Y-86756206D02*
X227280102Y-85185792D01*
X267243792Y-81998207D02*
X269645501Y-79596498D01*
X180649992Y-82173836D02*
X185580289Y-87104133D01*
X180200000Y-74553963D02*
X180200000Y-81087459D01*
X273493257Y-78002706D02*
X280598742Y-78002706D01*
X176888754Y-68988754D02*
X178606207Y-70706207D01*
X231127858Y-83592000D02*
X263396036Y-83592000D01*
X171840000Y-67670000D02*
X173705000Y-67670000D01*
X284446498Y-79596498D02*
X286350000Y-81500000D01*
X221861931Y-88350000D02*
X190350000Y-88350000D01*
X225709687Y-86756206D02*
G75*
G02*
X221861931Y-88350006I-3847787J3847806D01*
G01*
X178606207Y-70706207D02*
G75*
G02*
X180200011Y-74553963I-3847807J-3847793D01*
G01*
X284446498Y-79596498D02*
G75*
G03*
X280598742Y-78002689I-3847798J-3847802D01*
G01*
X267243792Y-81998207D02*
G75*
G02*
X263396036Y-83592010I-3847792J3847807D01*
G01*
X173705000Y-67670000D02*
G75*
G02*
X176888752Y-68988756I0J-4502500D01*
G01*
X231127858Y-83592000D02*
G75*
G03*
X227280133Y-85185823I42J-5441500D01*
G01*
X180200000Y-81087459D02*
G75*
G03*
X180649965Y-82173863I1536400J-41D01*
G01*
X273493257Y-78002706D02*
G75*
G03*
X269645513Y-79596510I43J-5441594D01*
G01*
X185580289Y-87104133D02*
G75*
G03*
X188588078Y-88350003I3007811J3007833D01*
G01*
X184562133Y-88654186D02*
X179028573Y-83120626D01*
X204250000Y-111600000D02*
X210550000Y-105300000D01*
X212200000Y-91850000D02*
X212200000Y-92400000D01*
X210264140Y-90166000D02*
X188211973Y-90166000D01*
X211811091Y-90911091D02*
X211633000Y-90733000D01*
X173797681Y-77830000D02*
X171840000Y-77830000D01*
X177655380Y-79805380D02*
X177011000Y-79161000D01*
X179028573Y-83120626D02*
G75*
G02*
X178342004Y-81463026I1657527J1657526D01*
G01*
X188211973Y-90166000D02*
G75*
G02*
X184562136Y-88654183I27J5161700D01*
G01*
X178342000Y-81463026D02*
G75*
G03*
X177655400Y-79805360I-2344300J26D01*
G01*
X211633000Y-90733000D02*
G75*
G03*
X210264140Y-90165983I-1368900J-1368900D01*
G01*
X211811091Y-90911091D02*
G75*
G02*
X212200005Y-91850000I-938891J-938909D01*
G01*
X177011000Y-79161000D02*
G75*
G03*
X173797681Y-77830008I-3213300J-3213300D01*
G01*
X179746000Y-81119231D02*
X179746000Y-76699963D01*
X225897740Y-87210206D02*
X227468155Y-85639792D01*
X173675000Y-70210000D02*
X171840000Y-70210000D01*
X231315911Y-84046000D02*
X266196000Y-84046000D01*
X185329974Y-87495870D02*
X180306499Y-82472395D01*
X266196000Y-84046000D02*
X267496000Y-84046000D01*
X188488078Y-88804000D02*
X190338053Y-88804000D01*
X176807540Y-71507540D02*
X178152207Y-72852207D01*
X222049984Y-88804000D02*
X190338053Y-88804000D01*
X225897740Y-87210206D02*
G75*
G02*
X222049984Y-88803973I-3847740J3847806D01*
G01*
X178152207Y-72852207D02*
G75*
G02*
X179746011Y-76699963I-3847807J-3847793D01*
G01*
X176807540Y-71507540D02*
G75*
G03*
X173675000Y-70210005I-3132540J-3132560D01*
G01*
X185329974Y-87495870D02*
G75*
G03*
X188488078Y-88804025I3158126J3158070D01*
G01*
X231315911Y-84046000D02*
G75*
G03*
X227468160Y-85639797I-11J-5441500D01*
G01*
X179746000Y-81119231D02*
G75*
G03*
X180306507Y-82472387I1913700J31D01*
G01*
X250200000Y-88800000D02*
X250200000Y-90450000D01*
X179968392Y-82776340D02*
X185071212Y-87879160D01*
X171840000Y-72750000D02*
X173720000Y-72750000D01*
X226085792Y-87664206D02*
X227656207Y-86093792D01*
X231503963Y-84500000D02*
X245676167Y-84500000D01*
X179250000Y-78653963D02*
X179250000Y-81041988D01*
X249033273Y-85983273D02*
X248875000Y-85825000D01*
X222238036Y-89258000D02*
X188400026Y-89258000D01*
X176929360Y-74079360D02*
X177656207Y-74806207D01*
X177656207Y-74806207D02*
G75*
G02*
X179250011Y-78653963I-3847807J-3847793D01*
G01*
X185071212Y-87879160D02*
G75*
G03*
X188400026Y-89257968I3328788J3328860D01*
G01*
X249033273Y-85983273D02*
G75*
G02*
X250199986Y-88800000I-2816773J-2816727D01*
G01*
X248875000Y-85825000D02*
G75*
G03*
X245676167Y-84500014I-3198800J-3198800D01*
G01*
X226085792Y-87664206D02*
G75*
G02*
X222238036Y-89258010I-3847792J3847806D01*
G01*
X173720000Y-72750000D02*
G75*
G02*
X176929356Y-74079364I0J-4538700D01*
G01*
X231503963Y-84500000D02*
G75*
G03*
X227656236Y-86093821I37J-5441500D01*
G01*
X179250000Y-81041988D02*
G75*
G03*
X179968395Y-82776337I2452700J-12D01*
G01*
M02*
