M48
; DRILL file {KiCad 8.0.8} date 2025-03-03T09:41:52+0300
; FORMAT={-:-/ absolute / metric / decimal}
; #@! TF.CreationDate,2025-03-03T09:41:52+03:00
; #@! TF.GenerationSoftware,Kicad,Pcbnew,8.0.8
; #@! TF.FileFunction,NonPlated,1,2,NPTH
FMAT,2
METRIC
; #@! TA.AperFunction,NonPlated,NPTH,ComponentDrill
T1C0.500
; #@! TA.AperFunction,NonPlated,NPTH,ComponentDrill
T2C1.750
; #@! TA.AperFunction,NonPlated,NPTH,ComponentDrill
T3C3.050
; #@! TA.AperFunction,NonPlated,NPTH,ComponentDrill
T4C3.500
; #@! TA.AperFunction,NonPlated,NPTH,ComponentDrill
T5C4.000
%
G90
G05
T1
X35.1Y-58.2
X35.85Y-58.2
X36.6Y-58.2
X37.35Y-58.2
X37.8Y-114.35
X38.1Y-58.2
X38.55Y-114.35
X38.85Y-58.2
X39.3Y-114.35
X40.05Y-114.35
X40.8Y-114.35
X41.55Y-114.35
X95.95Y-128.4
X96.7Y-128.4
X97.45Y-128.4
X98.2Y-128.4
X98.95Y-128.4
X99.7Y-128.4
X136.95Y-53.2
X137.7Y-53.2
X138.45Y-53.2
X139.2Y-53.2
X139.95Y-53.2
X140.7Y-53.2
X185.6Y-53.2
X186.35Y-53.2
X187.1Y-53.2
X187.85Y-53.2
X188.6Y-53.2
X189.35Y-53.2
X226.6Y-128.4
X227.35Y-128.4
X228.1Y-128.4
X228.85Y-128.4
X229.6Y-128.4
X230.35Y-128.4
X284.7Y-114.35
X285.45Y-114.35
X286.2Y-114.35
X286.95Y-114.35
X287.45Y-58.2
X287.7Y-114.35
X288.2Y-58.2
X288.45Y-114.35
X288.95Y-58.2
X289.7Y-58.2
X290.45Y-58.2
X291.2Y-58.2
T2
X25.095Y-67.225
X25.095Y-86.275
X25.095Y-105.325
X35.255Y-67.225
X35.255Y-86.275
X35.255Y-105.325
X44.145Y-67.225
X44.145Y-86.275
X44.145Y-105.325
X54.305Y-67.225
X54.305Y-86.275
X54.305Y-105.325
X63.195Y-59.225
X63.195Y-78.275
X63.195Y-97.325
X73.355Y-59.225
X73.355Y-78.275
X73.355Y-97.325
X82.245Y-54.225
X82.245Y-73.275
X82.245Y-92.325
X92.405Y-54.225
X92.405Y-73.275
X92.405Y-92.325
X92.745Y-119.375
X101.295Y-59.225
X101.295Y-78.275
X101.295Y-97.325
X102.905Y-119.375
X111.455Y-59.225
X111.455Y-78.275
X111.455Y-97.325
X114.109Y-120.85
X120.345Y-62.225
X120.345Y-81.275
X120.345Y-100.325
X123.923Y-123.48
X130.505Y-62.225
X130.505Y-81.275
X130.505Y-100.325
X134.363Y-127.804
X143.162Y-132.884
X183.138Y-132.884
X191.937Y-127.804
X195.795Y-62.225
X195.795Y-81.275
X195.795Y-100.325
X202.377Y-123.48
X205.955Y-62.225
X205.955Y-81.275
X205.955Y-100.325
X212.191Y-120.85
X214.845Y-59.225
X214.845Y-78.275
X214.845Y-97.325
X223.395Y-119.375
X225.005Y-59.225
X225.005Y-78.275
X225.005Y-97.325
X233.555Y-119.375
X233.895Y-54.225
X233.895Y-73.275
X233.895Y-92.325
X244.055Y-54.225
X244.055Y-73.275
X244.055Y-92.325
X252.945Y-59.225
X252.945Y-78.275
X252.945Y-97.325
X263.105Y-59.225
X263.105Y-78.275
X263.105Y-97.325
X271.995Y-67.225
X271.995Y-86.275
X271.995Y-105.325
X282.155Y-67.225
X282.155Y-86.275
X282.155Y-105.325
X291.045Y-67.225
X291.045Y-86.275
X291.045Y-105.325
X301.205Y-67.225
X301.205Y-86.275
X301.205Y-105.325
T3
X26.365Y-64.685
X26.365Y-83.735
X26.365Y-102.785
X32.715Y-62.145
X32.715Y-81.195
X32.715Y-100.245
X45.415Y-64.685
X45.415Y-83.735
X45.415Y-102.785
X51.765Y-62.145
X51.765Y-81.195
X51.765Y-100.245
X64.465Y-56.685
X64.465Y-75.735
X64.465Y-94.785
X70.815Y-54.145
X70.815Y-73.195
X70.815Y-92.245
X83.515Y-51.685
X83.515Y-70.735
X83.515Y-89.785
X89.865Y-49.145
X89.865Y-68.195
X89.865Y-87.245
X94.015Y-116.835
X100.365Y-114.295
X102.565Y-56.685
X102.565Y-75.735
X102.565Y-94.785
X108.915Y-54.145
X108.915Y-73.195
X108.915Y-92.245
X115.993Y-118.725
X121.615Y-59.685
X121.615Y-78.735
X121.615Y-97.785
X122.784Y-117.915
X127.965Y-57.145
X127.965Y-76.195
X127.965Y-95.245
X136.733Y-126.239
X143.502Y-127.215
X182.968Y-130.049
X187.197Y-124.675
X197.065Y-59.685
X197.065Y-78.735
X197.065Y-97.785
X202.947Y-120.697
X203.415Y-57.145
X203.415Y-76.195
X203.415Y-95.245
X208.423Y-116.601
X216.115Y-56.685
X216.115Y-75.735
X216.115Y-94.785
X222.465Y-54.145
X222.465Y-73.195
X222.465Y-92.245
X224.665Y-116.835
X231.015Y-114.295
X235.165Y-51.685
X235.165Y-70.735
X235.165Y-89.785
X241.515Y-49.145
X241.515Y-68.195
X241.515Y-87.245
X254.215Y-56.685
X254.215Y-75.735
X254.215Y-94.785
X260.565Y-54.145
X260.565Y-73.195
X260.565Y-92.245
X273.265Y-64.685
X273.265Y-83.735
X273.265Y-102.785
X279.615Y-62.145
X279.615Y-81.195
X279.615Y-100.245
X292.315Y-64.685
X292.315Y-83.735
X292.315Y-102.785
X298.665Y-62.145
X298.665Y-81.195
X298.665Y-100.245
T4
X39.7Y-76.75
X39.7Y-95.8
X92.85Y-105.85
X115.9Y-70.25
X132.428Y-117.709
X193.872Y-117.709
X210.4Y-70.25
X233.45Y-105.85
X286.6Y-76.75
X286.6Y-95.8
T5
X30.175Y-67.225
X30.175Y-86.275
X30.175Y-105.325
X49.225Y-67.225
X49.225Y-86.275
X49.225Y-105.325
X68.275Y-59.225
X68.275Y-78.275
X68.275Y-97.325
X87.325Y-54.225
X87.325Y-73.275
X87.325Y-92.325
X97.825Y-119.375
X106.375Y-59.225
X106.375Y-78.275
X106.375Y-97.325
X119.016Y-122.165
X125.425Y-62.225
X125.425Y-81.275
X125.425Y-100.325
X138.762Y-130.344
X187.538Y-130.344
X200.875Y-62.225
X200.875Y-81.275
X200.875Y-100.325
X207.284Y-122.165
X219.925Y-59.225
X219.925Y-78.275
X219.925Y-97.325
X228.475Y-119.375
X238.975Y-54.225
X238.975Y-73.275
X238.975Y-92.325
X258.025Y-59.225
X258.025Y-78.275
X258.025Y-97.325
X277.075Y-67.225
X277.075Y-86.275
X277.075Y-105.325
X296.125Y-67.225
X296.125Y-86.275
X296.125Y-105.325
M30
