M48
; DRILL file {KiCad 8.0.8} date 2025-03-03T09:41:52+0300
; FORMAT={-:-/ absolute / metric / decimal}
; #@! TF.CreationDate,2025-03-03T09:41:52+03:00
; #@! TF.GenerationSoftware,Kicad,Pcbnew,8.0.8
; #@! TF.FileFunction,Plated,1,2,PTH
FMAT,2
METRIC
; #@! TA.AperFunction,Plated,PTH,ViaDrill
T1C0.300
; #@! TA.AperFunction,Plated,PTH,ComponentDrill
T2C0.950
; #@! TA.AperFunction,Plated,PTH,ComponentDrill
T3C1.092
; #@! TA.AperFunction,Plated,PTH,ComponentDrill
T4C1.300
; #@! TA.AperFunction,Plated,PTH,ComponentDrill
T5C2.200
; #@! TA.AperFunction,Plated,PTH,ComponentDrill
T6C2.300
%
G90
G05
T1
X28.35Y-89.7
X41.35Y-73.4
X41.4Y-92.45
X45.35Y-92.45
X45.4Y-73.4
X48.3Y-90.5
X58.75Y-72.05
X58.75Y-91.25
X62.05Y-68.85
X62.1Y-87.85
X68.517Y-83.567
X78.6Y-79.85
X78.65Y-64.65
X79.7Y-94.2
X80.65Y-62.65
X80.8Y-77.65
X85.8Y-103.7
X89.35Y-83.35
X97.5Y-61.85
X97.75Y-81.3
X99.55Y-63.9
X99.65Y-83.25
X100.8Y-100.9
X108.85Y-88.0
X111.35Y-111.45
X116.6Y-84.475
X117.05Y-65.45
X119.75Y-65.425
X119.95Y-84.55
X120.35Y-104.25
X126.0Y-89.25
X127.5Y-111.4
X147.0Y-82.0
X150.425Y-89.675
X178.1Y-89.45
X178.1Y-94.8
X183.4Y-82.15
X192.55Y-68.425
X192.9Y-84.7
X193.25Y-92.9
X193.79Y-103.26
X193.79Y-108.91
X194.65Y-86.45
X195.1Y-68.425
X204.25Y-111.6
X209.3Y-66.4
X210.4Y-85.7
X210.55Y-105.3
X212.2Y-92.4
X214.1Y-65.425
X214.45Y-84.475
X223.8Y-107.75
X228.65Y-89.7
X229.7Y-101.85
X230.95Y-63.95
X231.2Y-81.2
X232.517Y-79.85
X232.95Y-61.95
X249.85Y-61.9
X250.0Y-80.65
X250.2Y-90.45
X251.7Y-82.4
X251.975Y-64.025
X267.496Y-84.046
X269.075Y-68.575
X269.075Y-87.725
X270.775Y-89.425
X270.875Y-70.375
X286.35Y-81.5
X287.8Y-92.475
X287.9Y-73.425
X290.4Y-92.475
X290.45Y-73.425
T2
X142.62Y-93.875
X142.62Y-96.375
X142.62Y-98.375
X142.62Y-100.875
X183.68Y-93.875
X183.68Y-96.375
X183.68Y-98.375
X183.68Y-100.875
T3
X139.22Y-57.51
X139.22Y-60.05
X139.22Y-62.59
X139.22Y-65.13
X139.22Y-67.67
X139.22Y-70.21
X139.22Y-72.75
X139.22Y-75.29
X139.22Y-77.83
X139.22Y-80.37
X139.22Y-82.91
X139.22Y-85.45
X154.46Y-57.51
X154.46Y-60.05
X154.46Y-62.59
X154.46Y-65.13
X154.46Y-67.67
X154.46Y-70.21
X154.46Y-72.75
X154.46Y-75.29
X154.46Y-77.83
X154.46Y-80.37
X154.46Y-82.91
X154.46Y-85.45
X171.84Y-57.51
X171.84Y-60.05
X171.84Y-62.59
X171.84Y-65.13
X171.84Y-67.67
X171.84Y-70.21
X171.84Y-72.75
X171.84Y-75.29
X171.84Y-77.83
X171.84Y-80.37
X171.84Y-82.91
X171.84Y-85.45
X187.08Y-57.51
X187.08Y-60.05
X187.08Y-62.59
X187.08Y-65.13
X187.08Y-67.67
X187.08Y-70.21
X187.08Y-72.75
X187.08Y-75.29
X187.08Y-77.83
X187.08Y-80.37
X187.08Y-82.91
X187.08Y-85.45
T4
X147.48Y-113.45
X153.98Y-113.45
X172.32Y-113.45
X178.82Y-113.45
T5
X138.73Y-110.95
X152.73Y-119.033
X173.57Y-119.033
X187.57Y-110.95
T6
X145.33Y-90.805
X145.33Y-103.945
X180.97Y-90.805
X180.97Y-103.945
M30
