G04 #@! TF.GenerationSoftware,KiCad,Pcbnew,8.0.8*
G04 #@! TF.CreationDate,2025-03-03T09:41:38+03:00*
G04 #@! TF.ProjectId,KeebIsSplit,4b656562-4973-4537-906c-69742e6b6963,rev?*
G04 #@! TF.SameCoordinates,Original*
G04 #@! TF.FileFunction,Copper,L2,Bot*
G04 #@! TF.FilePolarity,Positive*
%FSLAX46Y46*%
G04 Gerber Fmt 4.6, Leading zero omitted, Abs format (unit mm)*
G04 Created by KiCad (PCBNEW 8.0.8) date 2025-03-03 09:41:38*
%MOMM*%
%LPD*%
G01*
G04 APERTURE LIST*
G04 Aperture macros list*
%AMRoundRect*
0 Rectangle with rounded corners*
0 $1 Rounding radius*
0 $2 $3 $4 $5 $6 $7 $8 $9 X,Y pos of 4 corners*
0 Add a 4 corners polygon primitive as box body*
4,1,4,$2,$3,$4,$5,$6,$7,$8,$9,$2,$3,0*
0 Add four circle primitives for the rounded corners*
1,1,$1+$1,$2,$3*
1,1,$1+$1,$4,$5*
1,1,$1+$1,$6,$7*
1,1,$1+$1,$8,$9*
0 Add four rect primitives between the rounded corners*
20,1,$1+$1,$2,$3,$4,$5,0*
20,1,$1+$1,$4,$5,$6,$7,0*
20,1,$1+$1,$6,$7,$8,$9,0*
20,1,$1+$1,$8,$9,$2,$3,0*%
G04 Aperture macros list end*
G04 #@! TA.AperFunction,SMDPad,CuDef*
%ADD10RoundRect,0.250000X-1.025000X-1.000000X1.025000X-1.000000X1.025000X1.000000X-1.025000X1.000000X0*%
G04 #@! TD*
G04 #@! TA.AperFunction,ComponentPad*
%ADD11C,3.800000*%
G04 #@! TD*
G04 #@! TA.AperFunction,ComponentPad*
%ADD12R,1.500000X1.600000*%
G04 #@! TD*
G04 #@! TA.AperFunction,ComponentPad*
%ADD13C,1.600000*%
G04 #@! TD*
G04 #@! TA.AperFunction,ComponentPad*
%ADD14C,3.000000*%
G04 #@! TD*
G04 #@! TA.AperFunction,SMDPad,CuDef*
%ADD15RoundRect,0.250000X-1.248893X-0.700636X0.731255X-1.231215X1.248893X0.700636X-0.731255X1.231215X0*%
G04 #@! TD*
G04 #@! TA.AperFunction,ComponentPad*
%ADD16R,2.250000X2.250000*%
G04 #@! TD*
G04 #@! TA.AperFunction,ComponentPad*
%ADD17C,2.250000*%
G04 #@! TD*
G04 #@! TA.AperFunction,SMDPad,CuDef*
%ADD18RoundRect,0.250000X-1.387676X-0.353525X0.387676X-1.378525X1.387676X0.353525X-0.387676X1.378525X0*%
G04 #@! TD*
G04 #@! TA.AperFunction,SMDPad,CuDef*
%ADD19RoundRect,0.250000X-0.731255X-1.231215X1.248893X-0.700636X0.731255X1.231215X-1.248893X0.700636X0*%
G04 #@! TD*
G04 #@! TA.AperFunction,SMDPad,CuDef*
%ADD20RoundRect,0.250000X-0.387676X-1.378525X1.387676X-0.353525X0.387676X1.378525X-1.387676X0.353525X0*%
G04 #@! TD*
G04 #@! TA.AperFunction,SMDPad,CuDef*
%ADD21RoundRect,0.225000X0.375000X-0.225000X0.375000X0.225000X-0.375000X0.225000X-0.375000X-0.225000X0*%
G04 #@! TD*
G04 #@! TA.AperFunction,ComponentPad*
%ADD22R,1.752600X1.752600*%
G04 #@! TD*
G04 #@! TA.AperFunction,ComponentPad*
%ADD23C,1.752600*%
G04 #@! TD*
G04 #@! TA.AperFunction,SMDPad,CuDef*
%ADD24RoundRect,0.225000X0.212260X-0.382356X0.437260X0.007356X-0.212260X0.382356X-0.437260X-0.007356X0*%
G04 #@! TD*
G04 #@! TA.AperFunction,SMDPad,CuDef*
%ADD25RoundRect,0.225000X0.437260X-0.007356X0.212260X0.382356X-0.437260X0.007356X-0.212260X-0.382356X0*%
G04 #@! TD*
G04 #@! TA.AperFunction,SMDPad,CuDef*
%ADD26RoundRect,0.225000X0.303988X-0.314390X0.420456X0.120276X-0.303988X0.314390X-0.420456X-0.120276X0*%
G04 #@! TD*
G04 #@! TA.AperFunction,SMDPad,CuDef*
%ADD27RoundRect,0.225000X0.420456X-0.120276X0.303988X0.314390X-0.420456X0.120276X-0.303988X-0.314390X0*%
G04 #@! TD*
G04 #@! TA.AperFunction,ViaPad*
%ADD28C,0.600000*%
G04 #@! TD*
G04 #@! TA.AperFunction,Conductor*
%ADD29C,0.254000*%
G04 #@! TD*
G04 #@! TA.AperFunction,Conductor*
%ADD30C,0.508000*%
G04 #@! TD*
G04 APERTURE END LIST*
D10*
X61190000Y-94785000D03*
X74117000Y-92245000D03*
X99290000Y-75735000D03*
X112217000Y-73195000D03*
D11*
X187570000Y-110950000D03*
D10*
X80240000Y-70735000D03*
X93167000Y-68195000D03*
D12*
X142620000Y-100875000D03*
D13*
X142620000Y-98375000D03*
X142620000Y-96375000D03*
X142620000Y-93875000D03*
D14*
X145330000Y-103945000D03*
X145330000Y-90805000D03*
D10*
X193790000Y-78735000D03*
X206717000Y-76195000D03*
X289040000Y-83735000D03*
X301967000Y-81195000D03*
X289040000Y-64685000D03*
X301967000Y-62145000D03*
D15*
X112829511Y-117877623D03*
X125973434Y-118769926D03*
D10*
X42140000Y-83735000D03*
X55067000Y-81195000D03*
X61190000Y-75735000D03*
X74117000Y-73195000D03*
X193790000Y-59685000D03*
X206717000Y-57145000D03*
X193790000Y-97785000D03*
X206717000Y-95245000D03*
D11*
X138730000Y-110950000D03*
D12*
X183680000Y-93875000D03*
D13*
X183680000Y-96375000D03*
X183680000Y-98375000D03*
X183680000Y-100875000D03*
D14*
X180970000Y-90805000D03*
X180970000Y-103945000D03*
D10*
X99290000Y-56685000D03*
X112217000Y-54145000D03*
X23090000Y-64685000D03*
X36017000Y-62145000D03*
X250940000Y-94785000D03*
X263867000Y-92245000D03*
X23090000Y-83735000D03*
X36017000Y-81195000D03*
D11*
X173570000Y-119032904D03*
D10*
X90740000Y-116835000D03*
X103667000Y-114295000D03*
X221390000Y-116835000D03*
X234317000Y-114295000D03*
X250940000Y-75735000D03*
X263867000Y-73195000D03*
X269990000Y-102785000D03*
X282917000Y-100245000D03*
D16*
X153980000Y-113450000D03*
D17*
X147480000Y-113450000D03*
D10*
X212840000Y-56685000D03*
X225767000Y-54145000D03*
X42140000Y-102785000D03*
X55067000Y-100245000D03*
X231890000Y-51685000D03*
X244817000Y-49145000D03*
X212840000Y-75735000D03*
X225767000Y-73195000D03*
X250940000Y-56685000D03*
X263867000Y-54145000D03*
D11*
X152730000Y-119032904D03*
D18*
X133896489Y-124601906D03*
X146361599Y-128865702D03*
D10*
X99290000Y-94785000D03*
X112217000Y-92245000D03*
X80240000Y-51685000D03*
X93167000Y-49145000D03*
X269990000Y-64685000D03*
X282917000Y-62145000D03*
X289040000Y-102785000D03*
X301967000Y-100245000D03*
D16*
X172320000Y-113450000D03*
D17*
X178820000Y-113450000D03*
D10*
X118340000Y-78735000D03*
X131267000Y-76195000D03*
X80240000Y-89785000D03*
X93167000Y-87245000D03*
X269990000Y-83735000D03*
X282917000Y-81195000D03*
X118340000Y-59685000D03*
X131267000Y-57145000D03*
D19*
X199783320Y-121545089D03*
X211612443Y-115745884D03*
D10*
X42140000Y-64685000D03*
X55067000Y-62145000D03*
X231890000Y-89785000D03*
X244817000Y-87245000D03*
X23090000Y-102785000D03*
X36017000Y-100245000D03*
X61190000Y-56685000D03*
X74117000Y-54145000D03*
X118340000Y-97785000D03*
X131267000Y-95245000D03*
X212840000Y-94785000D03*
X225767000Y-92245000D03*
D20*
X180131931Y-131686906D03*
X190057041Y-123023702D03*
D10*
X231890000Y-70735000D03*
X244817000Y-68195000D03*
D21*
X282825000Y-111525000D03*
X282825000Y-108225000D03*
X35925000Y-73425000D03*
X35925000Y-70125000D03*
X112125000Y-65425000D03*
X112125000Y-62125000D03*
X206625000Y-106525000D03*
X206625000Y-103225000D03*
X54975000Y-111525000D03*
X54975000Y-108225000D03*
X93075000Y-79475000D03*
X93075000Y-76175000D03*
X74025000Y-84475000D03*
X74025000Y-81175000D03*
X131175000Y-68425000D03*
X131175000Y-65125000D03*
D22*
X154460000Y-57510000D03*
D23*
X154460000Y-60050000D03*
X154460000Y-62590000D03*
X154460000Y-65130000D03*
X154460000Y-67670000D03*
X154460000Y-70210000D03*
X154460000Y-72750000D03*
X154460000Y-75290000D03*
X154460000Y-77830000D03*
X154460000Y-80370000D03*
X154460000Y-82910000D03*
X154460000Y-85450000D03*
X139220000Y-85450000D03*
X139220000Y-82910000D03*
X139220000Y-80370000D03*
X139220000Y-77830000D03*
X139220000Y-75290000D03*
X139220000Y-72750000D03*
X139220000Y-70210000D03*
X139220000Y-67670000D03*
X139220000Y-65130000D03*
X139220000Y-62590000D03*
X139220000Y-60050000D03*
X139220000Y-57510000D03*
D21*
X35925000Y-111525000D03*
X35925000Y-108225000D03*
X131175000Y-87475000D03*
X131175000Y-84175000D03*
X244725000Y-79475000D03*
X244725000Y-76175000D03*
X263775000Y-103525000D03*
X263775000Y-100225000D03*
D24*
X140654071Y-138618782D03*
X142304071Y-135760898D03*
D21*
X74025000Y-65425000D03*
X74025000Y-62125000D03*
X206625000Y-87475000D03*
X206625000Y-84175000D03*
X244725000Y-60425000D03*
X244725000Y-57125000D03*
X225675000Y-65425000D03*
X225675000Y-62125000D03*
X93075000Y-60425000D03*
X93075000Y-57125000D03*
X263775000Y-65425000D03*
X263775000Y-62125000D03*
X244725000Y-98525000D03*
X244725000Y-95225000D03*
X74025000Y-103525000D03*
X74025000Y-100225000D03*
X35925000Y-92475000D03*
X35925000Y-89175000D03*
X301875000Y-111525000D03*
X301875000Y-108225000D03*
X131175000Y-106525000D03*
X131175000Y-103225000D03*
X93075000Y-98525000D03*
X93075000Y-95225000D03*
X54975000Y-92475000D03*
X54975000Y-89175000D03*
X206625000Y-68425000D03*
X206625000Y-65125000D03*
X112125000Y-103525000D03*
X112125000Y-100225000D03*
X54975000Y-73425000D03*
X54975000Y-70125000D03*
X225675000Y-84475000D03*
X225675000Y-81175000D03*
X301875000Y-73425000D03*
X301875000Y-70125000D03*
X225675000Y-103525000D03*
X225675000Y-100225000D03*
D22*
X187080000Y-57510000D03*
D23*
X187080000Y-60050000D03*
X187080000Y-62590000D03*
X187080000Y-65130000D03*
X187080000Y-67670000D03*
X187080000Y-70210000D03*
X187080000Y-72750000D03*
X187080000Y-75290000D03*
X187080000Y-77830000D03*
X187080000Y-80370000D03*
X187080000Y-82910000D03*
X187080000Y-85450000D03*
X171840000Y-85450000D03*
X171840000Y-82910000D03*
X171840000Y-80370000D03*
X171840000Y-77830000D03*
X171840000Y-75290000D03*
X171840000Y-72750000D03*
X171840000Y-70210000D03*
X171840000Y-67670000D03*
X171840000Y-65130000D03*
X171840000Y-62590000D03*
X171840000Y-60050000D03*
X171840000Y-57510000D03*
D21*
X112125000Y-84475000D03*
X112125000Y-81175000D03*
X263775000Y-84475000D03*
X263775000Y-81175000D03*
X282825000Y-73425000D03*
X282825000Y-70125000D03*
X301875000Y-92475000D03*
X301875000Y-89175000D03*
D25*
X195604071Y-132818782D03*
X193954071Y-129960898D03*
D21*
X282825000Y-92475000D03*
X282825000Y-89175000D03*
D26*
X122970359Y-129626211D03*
X123824463Y-126438653D03*
D27*
X214458011Y-126671494D03*
X213603911Y-123483938D03*
D21*
X234225000Y-125575000D03*
X234225000Y-122275000D03*
X103575000Y-125575000D03*
X103575000Y-122275000D03*
D28*
X97500000Y-61850000D03*
X99550000Y-63900000D03*
X58750000Y-72050000D03*
X45400000Y-73400000D03*
X78650000Y-64650000D03*
X117050000Y-65450000D03*
X41350000Y-73400000D03*
X80650000Y-62650000D03*
X62050000Y-68850000D03*
X119750000Y-65425000D03*
X116600000Y-84475000D03*
X78600000Y-79850000D03*
X62100000Y-87850000D03*
X45350000Y-92450000D03*
X41400000Y-92450000D03*
X58750000Y-91250000D03*
X80800000Y-77650000D03*
X99650000Y-83250000D03*
X97750000Y-81300000D03*
X119950000Y-84550000D03*
X28350000Y-89700000D03*
X48300000Y-90500000D03*
X68516727Y-83566727D03*
X126000000Y-89250000D03*
X127500000Y-111400000D03*
X120350000Y-104250000D03*
X100800000Y-100900000D03*
X108850000Y-88000000D03*
X111350000Y-111450000D03*
X147000000Y-82000000D03*
X150425000Y-89675000D03*
X89350000Y-83350000D03*
X79700000Y-94200000D03*
X85800000Y-103700000D03*
X249850000Y-61900000D03*
X251975000Y-64025000D03*
X287900000Y-73425000D03*
X232950000Y-61950000D03*
X270875000Y-70375000D03*
X290450000Y-73425000D03*
X192550000Y-68425000D03*
X195100000Y-68425000D03*
X209300000Y-66400000D03*
X269075000Y-68575000D03*
X214100000Y-65425000D03*
X230950000Y-63950000D03*
X251700000Y-82400000D03*
X232517000Y-79850000D03*
X269075000Y-87725000D03*
X231200000Y-81200000D03*
X194650000Y-86450000D03*
X192900000Y-84700000D03*
X270775000Y-89425000D03*
X214450000Y-84475000D03*
X210400000Y-85700000D03*
X287800000Y-92475000D03*
X290400000Y-92475000D03*
X250000000Y-80650000D03*
X178100000Y-89450000D03*
X178100000Y-94800000D03*
X223800000Y-107750000D03*
X229700000Y-101850000D03*
X228650000Y-89700000D03*
X193790000Y-103260000D03*
X193790000Y-108910000D03*
X193250000Y-92900000D03*
X183400000Y-82150000D03*
X286350000Y-81500000D03*
X210550000Y-105300000D03*
X212200000Y-92400000D03*
X204250000Y-111600000D03*
X267496000Y-84046000D03*
X250200000Y-90450000D03*
D29*
X36950000Y-63078000D02*
X36017000Y-62145000D01*
X35875000Y-70075000D02*
X36950000Y-69000000D01*
X36950000Y-69000000D02*
X36950000Y-63078000D01*
X102153337Y-65425000D02*
X112125000Y-65425000D01*
X151085792Y-76124207D02*
X154460000Y-72750000D01*
X134106207Y-71356207D02*
X131175000Y-68425000D01*
X58750000Y-72096974D02*
X58172338Y-72674636D01*
X123573788Y-66423788D02*
X124075000Y-66925000D01*
X146893605Y-87246000D02*
X139278095Y-87246000D01*
X78262500Y-65037500D02*
X78650000Y-64650000D01*
X131150000Y-68450000D02*
X131175000Y-68425000D01*
X81762500Y-61537500D02*
X80650000Y-62650000D01*
X117050000Y-65450000D02*
X117025000Y-65425000D01*
X62050000Y-68799999D02*
X63831207Y-67018792D01*
X127696320Y-68425000D02*
X131175000Y-68425000D01*
X100312500Y-64662500D02*
X99550000Y-63900000D01*
X67678963Y-65425000D02*
X74025000Y-65425000D01*
X77326992Y-65425000D02*
X75250000Y-65425000D01*
X58750000Y-72050000D02*
X58750000Y-72096974D01*
X54925000Y-73375000D02*
X54950000Y-73400000D01*
X56200000Y-73425000D02*
X54975000Y-73425000D01*
X149492000Y-84647605D02*
X149492000Y-79971963D01*
X135700000Y-75203963D02*
X135700000Y-83667904D01*
X41325000Y-73425000D02*
X35925000Y-73425000D01*
X45400000Y-73400000D02*
X45425000Y-73425000D01*
X95067372Y-60425000D02*
X93075000Y-60425000D01*
X75250000Y-65425000D02*
X74025000Y-65425000D01*
X96787500Y-61137500D02*
X97500000Y-61850000D01*
X45425000Y-73425000D02*
X54975000Y-73425000D01*
X117025000Y-65425000D02*
X112125000Y-65425000D01*
X62050000Y-68850000D02*
X62050000Y-68799999D01*
X93075000Y-60425000D02*
X84448312Y-60425000D01*
X41350000Y-73400000D02*
X41325000Y-73425000D01*
X121162500Y-65425000D02*
X119750000Y-65425000D01*
X151085792Y-76124207D02*
G75*
G03*
X149491959Y-79971963I3847708J-3847793D01*
G01*
X123573788Y-66423788D02*
G75*
G03*
X121162500Y-65425007I-2411288J-2411312D01*
G01*
X78262500Y-65037500D02*
G75*
G02*
X77326992Y-65424997I-935500J935500D01*
G01*
X84448312Y-60425000D02*
G75*
G03*
X81762496Y-61537496I-12J-3798300D01*
G01*
X100312500Y-64662500D02*
G75*
G03*
X102153337Y-65424984I1840800J1840800D01*
G01*
X124075000Y-66925000D02*
G75*
G03*
X127696320Y-68424992I3621300J3621300D01*
G01*
X134106207Y-71356207D02*
G75*
G02*
X135700011Y-75203963I-3847807J-3847793D01*
G01*
X96787500Y-61137500D02*
G75*
G03*
X95067372Y-60425011I-1720100J-1720100D01*
G01*
X149492000Y-84647605D02*
G75*
G02*
X148730946Y-86484946I-2598400J5D01*
G01*
X135700000Y-83667904D02*
G75*
G03*
X136748001Y-86197999I3578100J4D01*
G01*
X148730948Y-86484948D02*
G75*
G02*
X146893605Y-87246002I-1837348J1837348D01*
G01*
X63831207Y-67018792D02*
G75*
G02*
X67678963Y-65424959I3847793J-3847708D01*
G01*
X58172338Y-72674636D02*
G75*
G02*
X56200000Y-73425025I-1975938J2226336D01*
G01*
X136748000Y-86198000D02*
G75*
G03*
X139278095Y-87246002I2530100J2530100D01*
G01*
X56025000Y-68975000D02*
X56025000Y-63053000D01*
X56025000Y-63053000D02*
X55092000Y-62120000D01*
X54950000Y-70050000D02*
X56025000Y-68975000D01*
X75025000Y-61025000D02*
X75025000Y-55103000D01*
X75025000Y-55103000D02*
X74092000Y-54170000D01*
X73950000Y-62100000D02*
X75025000Y-61025000D01*
X94075000Y-56025000D02*
X94075000Y-50103000D01*
X94075000Y-50103000D02*
X93142000Y-49170000D01*
X93000000Y-57100000D02*
X94075000Y-56025000D01*
X113125000Y-55103000D02*
X112192000Y-54170000D01*
X113125000Y-61025000D02*
X113125000Y-55103000D01*
X112050000Y-62100000D02*
X113125000Y-61025000D01*
X131050000Y-65100000D02*
X132125000Y-64025000D01*
X132125000Y-58103000D02*
X131192000Y-57170000D01*
X132125000Y-64025000D02*
X132125000Y-58103000D01*
X45350000Y-92450000D02*
X45375000Y-92475000D01*
X131150000Y-87500000D02*
X131175000Y-87475000D01*
X78600000Y-79900000D02*
X74025000Y-84475000D01*
X81300000Y-77150000D02*
X80800000Y-77650000D01*
X101741205Y-84475000D02*
X112125000Y-84475000D01*
X82507106Y-76650000D02*
X85552423Y-76650000D01*
X146893604Y-87700000D02*
X131400000Y-87700000D01*
X94634530Y-79475000D02*
X93075000Y-79475000D01*
X116600000Y-84475000D02*
X112125000Y-84475000D01*
X127100000Y-86000000D02*
X127698438Y-86598438D01*
X151539792Y-78210207D02*
X154460000Y-75290000D01*
X67728963Y-84475000D02*
X74025000Y-84475000D01*
X58750000Y-91297026D02*
X58275938Y-91771088D01*
X45375000Y-92475000D02*
X54975000Y-92475000D01*
X62100000Y-87850000D02*
X62103523Y-87850000D01*
X123478679Y-84500000D02*
X120000000Y-84500000D01*
X131175000Y-87475000D02*
X131400000Y-87700000D01*
X96837500Y-80387500D02*
X97750000Y-81300000D01*
X149946000Y-84647604D02*
X149946000Y-82057963D01*
X91725000Y-79475000D02*
X93075000Y-79475000D01*
X100262500Y-83862500D02*
X99650000Y-83250000D01*
X88962500Y-78062500D02*
X89420405Y-78520405D01*
X78600000Y-79850000D02*
X78600000Y-79900000D01*
X119950000Y-84550000D02*
X120000000Y-84500000D01*
X56425951Y-92475000D02*
X54975000Y-92475000D01*
X62103523Y-87850000D02*
X64050889Y-85902634D01*
X58750000Y-91250000D02*
X58750000Y-91297026D01*
X41375000Y-92475000D02*
X35925000Y-92475000D01*
X41400000Y-92450000D02*
X41375000Y-92475000D01*
X129875000Y-87500000D02*
X131150000Y-87500000D01*
X82507106Y-76650000D02*
G75*
G03*
X81299998Y-77149998I-6J-1707100D01*
G01*
X89420405Y-78520405D02*
G75*
G03*
X91725000Y-79474997I2304595J2304605D01*
G01*
X149946000Y-84647604D02*
G75*
G02*
X149051973Y-86805973I-3052400J4D01*
G01*
X64050889Y-85902634D02*
G75*
G02*
X67728963Y-84474976I3681911J-4033966D01*
G01*
X127698438Y-86598438D02*
G75*
G03*
X129875000Y-87500007I2176562J2176538D01*
G01*
X58275938Y-91771088D02*
G75*
G02*
X56425951Y-92474981I-1853238J2087688D01*
G01*
X96837500Y-80387500D02*
G75*
G03*
X94634530Y-79474988I-2203000J-2203000D01*
G01*
X100262500Y-83862500D02*
G75*
G03*
X101741205Y-84474998I1478700J1478700D01*
G01*
X151539792Y-78210207D02*
G75*
G03*
X149945959Y-82057963I3847708J-3847793D01*
G01*
X149051974Y-86805974D02*
G75*
G02*
X146893604Y-87700002I-2158374J2158374D01*
G01*
X127100000Y-86000000D02*
G75*
G03*
X123478679Y-84500008I-3621300J-3621300D01*
G01*
X88962500Y-78062500D02*
G75*
G03*
X85552423Y-76649990I-3410100J-3410100D01*
G01*
X36925000Y-82153000D02*
X35992000Y-81220000D01*
X35850000Y-89150000D02*
X36925000Y-88075000D01*
X36925000Y-88075000D02*
X36925000Y-82153000D01*
X54900000Y-89150000D02*
X55975000Y-88075000D01*
X55975000Y-88075000D02*
X55975000Y-82153000D01*
X55975000Y-82153000D02*
X55042000Y-81220000D01*
X73950000Y-81150000D02*
X75025000Y-80075000D01*
X75025000Y-80075000D02*
X75025000Y-74153000D01*
X75025000Y-74153000D02*
X74092000Y-73220000D01*
X94075000Y-69153000D02*
X93142000Y-68220000D01*
X94075000Y-75075000D02*
X94075000Y-69153000D01*
X93000000Y-76150000D02*
X94075000Y-75075000D01*
X113125000Y-80075000D02*
X113125000Y-74153000D01*
X113125000Y-74153000D02*
X112192000Y-73220000D01*
X112050000Y-81150000D02*
X113125000Y-80075000D01*
X131100000Y-84150000D02*
X132175000Y-83075000D01*
X132175000Y-83075000D02*
X132175000Y-77153000D01*
X132175000Y-77153000D02*
X131242000Y-76220000D01*
X139378095Y-88154000D02*
X146893602Y-88154000D01*
X58166726Y-105033273D02*
X58337500Y-104862500D01*
X61566510Y-103525000D02*
X74025000Y-103525000D01*
X135800000Y-99646036D02*
X135800000Y-91732095D01*
X134206207Y-103493792D02*
X131175000Y-106525000D01*
X104578963Y-103525000D02*
X112125000Y-103525000D01*
X83328963Y-98525000D02*
X93075000Y-98525000D01*
X76799784Y-102800215D02*
X79481207Y-100118792D01*
X55987500Y-110512500D02*
X54975000Y-111525000D01*
X123346320Y-106525000D02*
X131175000Y-106525000D01*
X151888459Y-80401540D02*
X154460000Y-77830000D01*
X116103679Y-103525000D02*
X112125000Y-103525000D01*
X100731207Y-101931207D02*
X98827601Y-100027601D01*
X35925000Y-111525000D02*
X54975000Y-111525000D01*
X95200000Y-98525000D02*
X93075000Y-98525000D01*
X57000000Y-107850000D02*
X57000000Y-108068108D01*
X150400000Y-83995000D02*
X150400000Y-84647602D01*
X75050000Y-103525000D02*
X74025000Y-103525000D01*
X119725000Y-105025000D02*
G75*
G03*
X123346320Y-106524992I3621300J3621300D01*
G01*
X119725000Y-105025000D02*
G75*
G03*
X116103679Y-103525008I-3621300J-3621300D01*
G01*
X150400000Y-84647602D02*
G75*
G02*
X149372999Y-87126999I-3506400J2D01*
G01*
X139378095Y-88154000D02*
G75*
G03*
X136848001Y-89202001I5J-3578100D01*
G01*
X135800000Y-99646036D02*
G75*
G02*
X134206200Y-103493785I-5441600J36D01*
G01*
X98827601Y-100027601D02*
G75*
G03*
X95200000Y-98524999I-3627601J-3627599D01*
G01*
X61566510Y-103525000D02*
G75*
G03*
X58337497Y-104862497I-10J-4566500D01*
G01*
X58166726Y-105033273D02*
G75*
G03*
X57000013Y-107850000I2816774J-2816727D01*
G01*
X83328963Y-98525000D02*
G75*
G03*
X79481236Y-100118821I37J-5441500D01*
G01*
X136848000Y-89202000D02*
G75*
G03*
X135799998Y-91732095I2530100J-2530100D01*
G01*
X151888459Y-80401540D02*
G75*
G03*
X150399994Y-83995000I3593441J-3593460D01*
G01*
X100731207Y-101931207D02*
G75*
G03*
X104578963Y-103525011I3847793J3847807D01*
G01*
X57000000Y-108068108D02*
G75*
G02*
X55987497Y-110512497I-3456900J8D01*
G01*
X149373000Y-87127000D02*
G75*
G02*
X146893602Y-88154001I-2479400J2479400D01*
G01*
X76799784Y-102800215D02*
G75*
G02*
X75050000Y-103524990I-1749784J1749815D01*
G01*
X35850000Y-108200000D02*
X36925000Y-107125000D01*
X36925000Y-101203000D02*
X35992000Y-100270000D01*
X36925000Y-107125000D02*
X36925000Y-101203000D01*
X54900000Y-108200000D02*
X55975000Y-107125000D01*
X55975000Y-101203000D02*
X55042000Y-100270000D01*
X55975000Y-107125000D02*
X55975000Y-101203000D01*
X75025000Y-99125000D02*
X75025000Y-93203000D01*
X73950000Y-100200000D02*
X75025000Y-99125000D01*
X75025000Y-93203000D02*
X74092000Y-92270000D01*
X94075000Y-88203000D02*
X93142000Y-87270000D01*
X93000000Y-95200000D02*
X94075000Y-94125000D01*
X94075000Y-94125000D02*
X94075000Y-88203000D01*
X113125000Y-93203000D02*
X112192000Y-92270000D01*
X112050000Y-100200000D02*
X113125000Y-99125000D01*
X113125000Y-99125000D02*
X113125000Y-93203000D01*
X132175000Y-96203000D02*
X131242000Y-95270000D01*
X132175000Y-102125000D02*
X132175000Y-96203000D01*
X131100000Y-103200000D02*
X132175000Y-102125000D01*
X151671433Y-83158566D02*
X154460000Y-80370000D01*
X103575000Y-125575000D02*
X122795599Y-129660465D01*
X134660206Y-106489792D02*
X133043792Y-108106207D01*
X136254000Y-102642036D02*
X136254000Y-91732094D01*
X103893197Y-124356801D02*
X105806207Y-122443792D01*
X103575000Y-125125000D02*
X103575000Y-125575000D01*
X146893601Y-88608000D02*
X139378094Y-88608000D01*
X107400000Y-113967766D02*
X107400000Y-118596036D01*
X149694025Y-87448025D02*
X150036613Y-87105438D01*
X122989700Y-129757267D02*
X140575159Y-138525054D01*
X111667766Y-109700000D02*
X129196036Y-109700000D01*
X150854000Y-85132026D02*
G75*
G02*
X150036610Y-87105435I-2790700J-74D01*
G01*
X139378094Y-88608000D02*
G75*
G03*
X137169028Y-89523028I6J-3124100D01*
G01*
X137169026Y-89523026D02*
G75*
G03*
X136253998Y-91732094I2209074J-2209074D01*
G01*
X136254000Y-102642036D02*
G75*
G02*
X134660199Y-106489785I-5441600J36D01*
G01*
X151671433Y-83158566D02*
G75*
G03*
X150854020Y-85132026I1973467J-1973434D01*
G01*
X133043792Y-108106207D02*
G75*
G02*
X129196036Y-109700010I-3847792J3847807D01*
G01*
X149694025Y-87448025D02*
G75*
G02*
X146893601Y-88607999I-2800425J2800425D01*
G01*
X108650000Y-110950000D02*
G75*
G03*
X107399986Y-113967766I3017800J-3017800D01*
G01*
X111667766Y-109700000D02*
G75*
G03*
X108650010Y-110950010I34J-4267800D01*
G01*
X103893197Y-124356801D02*
G75*
G03*
X103575000Y-125125000I768203J-768199D01*
G01*
X107400000Y-118596036D02*
G75*
G02*
X105806200Y-122443785I-5441600J36D01*
G01*
X301725000Y-69925000D02*
X302800000Y-68850000D01*
X302800000Y-68850000D02*
X302800000Y-62928000D01*
X282725000Y-69925000D02*
X283800000Y-68850000D01*
X283800000Y-68850000D02*
X283800000Y-62928000D01*
X263675000Y-61875000D02*
X264750000Y-60800000D01*
X264750000Y-60800000D02*
X264750000Y-54878000D01*
D30*
X150123948Y-60050000D02*
X139220000Y-60050000D01*
X153190000Y-61320000D02*
X154460000Y-62590000D01*
X153190000Y-61320000D02*
G75*
G03*
X150123948Y-60049980I-3066100J-3066100D01*
G01*
D29*
X26300573Y-89700000D02*
X28350000Y-89700000D01*
X22440000Y-102785000D02*
X22440000Y-83735000D01*
X23040000Y-86439426D02*
X23040000Y-83785000D01*
X22440000Y-83735000D02*
X22440000Y-64685000D01*
X23995000Y-88745000D02*
G75*
G03*
X26300573Y-89700011I2305600J2305600D01*
G01*
X23040000Y-86439426D02*
G75*
G03*
X23994999Y-88745001I3260570J-4D01*
G01*
X43207808Y-72515000D02*
X43207808Y-70722731D01*
X43207803Y-72515005D02*
X43207808Y-72515000D01*
X41500000Y-102860000D02*
X41500000Y-100794091D01*
X41500000Y-66736745D02*
X41500000Y-64700000D01*
X42571219Y-88436219D02*
X42355000Y-88220000D01*
X42035496Y-86219443D02*
X42035496Y-83980496D01*
X46775000Y-90500000D02*
X48300000Y-90500000D01*
X41500000Y-83750000D02*
X41500000Y-81684152D01*
X43207803Y-96829660D02*
X43207803Y-91647813D01*
X43207803Y-77719660D02*
X43207803Y-72515005D01*
X43207803Y-91647813D02*
X43207808Y-91647808D01*
X44171662Y-89421662D02*
X42789309Y-88039309D01*
X41500000Y-86155847D02*
X41500000Y-83810000D01*
X43207808Y-91647808D02*
X43207808Y-89832731D01*
X42573603Y-69328603D02*
G75*
G02*
X41499971Y-66736745I2591797J2591903D01*
G01*
X43207808Y-89832731D02*
G75*
G03*
X42571237Y-88436201I-2186408J-153269D01*
G01*
X41500000Y-81684152D02*
G75*
G02*
X42354999Y-79619999I2919150J2D01*
G01*
X42355000Y-79620000D02*
G75*
G03*
X43207786Y-77719659I-2079500J2074700D01*
G01*
X41500000Y-100794091D02*
G75*
G02*
X42355005Y-98730005I2919000J-9D01*
G01*
X43207808Y-70722731D02*
G75*
G03*
X42573590Y-69328615I-2186708J-153469D01*
G01*
X44171662Y-89421662D02*
G75*
G03*
X46775000Y-90499993I2603338J2603362D01*
G01*
X42355000Y-88220000D02*
G75*
G02*
X41499980Y-86155847I2064200J2064200D01*
G01*
X42035496Y-86219443D02*
G75*
G03*
X42789325Y-88039293I2573704J43D01*
G01*
X42355000Y-98730000D02*
G75*
G03*
X43207808Y-96829660I-2079200J2074600D01*
G01*
X60700000Y-75742500D02*
X60700000Y-56685000D01*
X60750000Y-94850000D02*
X60750000Y-75800000D01*
X66866727Y-83566727D02*
X68516727Y-83566727D01*
X61256727Y-77704227D02*
X61256727Y-75801727D01*
X64050000Y-82400000D02*
X62601997Y-80951997D01*
X64050000Y-82400000D02*
G75*
G03*
X66866727Y-83566715I2816700J2816700D01*
G01*
X61256727Y-77704227D02*
G75*
G03*
X62602004Y-80951990I4593073J27D01*
G01*
X119800000Y-71036835D02*
X119800000Y-69432343D01*
X133896489Y-124601906D02*
X133851906Y-124601906D01*
X118340000Y-95163963D02*
X118340000Y-97785000D01*
X120350000Y-104250000D02*
X120300000Y-104250000D01*
X118340000Y-65907624D02*
X118340000Y-59685000D01*
X118300000Y-97750000D02*
X117800000Y-97250000D01*
X117750000Y-75649568D02*
X117750000Y-78145000D01*
X129350000Y-114558147D02*
X129350000Y-117846036D01*
X124000000Y-89250000D02*
X126000000Y-89250000D01*
X119933792Y-91316206D02*
X120585786Y-90664213D01*
X118340000Y-78735000D02*
X117750000Y-78145000D01*
X117800000Y-79300000D02*
X118350000Y-78750000D01*
X117800000Y-97250000D02*
X117800000Y-79300000D01*
X118775000Y-73175000D02*
X119012873Y-72937127D01*
X119010920Y-102960920D02*
X120300000Y-104250000D01*
X128425000Y-112325000D02*
X127500000Y-111400000D01*
X117800000Y-98325000D02*
X118340000Y-97785000D01*
X130943792Y-121693792D02*
X133851906Y-124601906D01*
X117800000Y-100037500D02*
X117800000Y-98325000D01*
X119933792Y-91316206D02*
G75*
G03*
X118339988Y-95163963I3847808J-3847794D01*
G01*
X128425000Y-112325000D02*
G75*
G02*
X129349980Y-114558147I-2233100J-2233100D01*
G01*
X124000000Y-89250000D02*
G75*
G03*
X120585792Y-90664219I0J-4828400D01*
G01*
X119800000Y-71036835D02*
G75*
G02*
X119012852Y-72937106I-2687400J35D01*
G01*
X118340000Y-65907624D02*
G75*
G03*
X119070007Y-67669993I2492400J24D01*
G01*
X117800000Y-100037500D02*
G75*
G03*
X119010928Y-102960912I4134300J0D01*
G01*
X129350000Y-117846036D02*
G75*
G03*
X130943800Y-121693784I5441600J36D01*
G01*
X118775000Y-73175000D02*
G75*
G03*
X117749987Y-75649568I2474600J-2474600D01*
G01*
X119070000Y-67670000D02*
G75*
G02*
X119799969Y-69432343I-1762300J-1762300D01*
G01*
X99290000Y-93022500D02*
X99290000Y-94785000D01*
X99290000Y-94785000D02*
X98600000Y-95475000D01*
X100956206Y-89593792D02*
X100536275Y-90013724D01*
X98600000Y-97144365D02*
X98600000Y-95475000D01*
X104803963Y-88000000D02*
X108850000Y-88000000D01*
X98650000Y-75750000D02*
X98650000Y-64450000D01*
X98650000Y-72425000D02*
X98610000Y-72465000D01*
X99700000Y-99800000D02*
X100800000Y-100900000D01*
X112829511Y-113975683D02*
X112829511Y-117877623D01*
X112089755Y-112189755D02*
X111350000Y-111450000D01*
X98650000Y-64450000D02*
X98650000Y-72425000D01*
X98600000Y-94095000D02*
X98600000Y-75650000D01*
X98650000Y-64450000D02*
X98650000Y-56700000D01*
X99290000Y-94785000D02*
X98600000Y-94095000D01*
X112089755Y-112189755D02*
G75*
G02*
X112829515Y-113975683I-1785955J-1785945D01*
G01*
X104803963Y-88000000D02*
G75*
G03*
X100956215Y-89593801I37J-5441600D01*
G01*
X100536275Y-90013724D02*
G75*
G03*
X99289984Y-93022500I3008725J-3008776D01*
G01*
X98600000Y-97144365D02*
G75*
G03*
X99699990Y-99800010I3755600J-35D01*
G01*
X150425000Y-89675000D02*
X152386207Y-91636207D01*
X142288385Y-62590000D02*
X139220000Y-62590000D01*
X147000000Y-67301614D02*
X147000000Y-82000000D01*
X153980000Y-95483963D02*
X153980000Y-113450000D01*
X145620000Y-63970000D02*
G75*
G03*
X142288385Y-62590006I-3331600J-3331600D01*
G01*
X145620000Y-63970000D02*
G75*
G02*
X146999994Y-67301614I-3331600J-3331600D01*
G01*
X152386207Y-91636207D02*
G75*
G02*
X153980011Y-95483963I-3847807J-3847793D01*
G01*
X80240000Y-88172500D02*
X80240000Y-89785000D01*
X79650000Y-70500000D02*
X79650000Y-63450000D01*
X81856206Y-84943792D02*
X81380209Y-85419790D01*
X89146207Y-107046207D02*
X85800000Y-103700000D01*
X79650000Y-63450000D02*
X79650000Y-67175000D01*
X79650000Y-89650000D02*
X79650000Y-70600000D01*
X85703963Y-83350000D02*
X89350000Y-83350000D01*
X79650000Y-63450000D02*
X79650000Y-51450000D01*
X90740000Y-110893963D02*
X90740000Y-116835000D01*
X79640000Y-94140000D02*
X79700000Y-94200000D01*
X79650000Y-67175000D02*
X79610000Y-67215000D01*
X79640000Y-89785000D02*
X79640000Y-94140000D01*
X81380209Y-85419790D02*
G75*
G03*
X80239994Y-88172500I2752691J-2752710D01*
G01*
X85703963Y-83350000D02*
G75*
G03*
X81856215Y-84943801I37J-5441600D01*
G01*
X89146207Y-107046207D02*
G75*
G02*
X90740011Y-110893963I-3847807J-3847793D01*
G01*
X245700000Y-55900000D02*
X245700000Y-49978000D01*
X244625000Y-56975000D02*
X245700000Y-55900000D01*
X228432017Y-65425000D02*
X225675000Y-65425000D01*
X287900000Y-73425000D02*
X282825000Y-73425000D01*
X276081675Y-73425000D02*
X282825000Y-73425000D01*
X272400000Y-71900000D02*
X270875000Y-70375000D01*
X263775000Y-65425000D02*
X264850000Y-65425000D01*
X252675000Y-64725000D02*
X251975000Y-64025000D01*
X191977500Y-68425000D02*
X192550000Y-68425000D01*
X235553337Y-60425000D02*
X244725000Y-60425000D01*
X191000181Y-68829818D02*
X187080000Y-72750000D01*
X263775000Y-65425000D02*
X254364949Y-65425000D01*
X249112500Y-61162500D02*
X249850000Y-61900000D01*
X301875000Y-73425000D02*
X290450000Y-73425000D01*
X233712500Y-61187500D02*
X232950000Y-61950000D01*
X266685139Y-66185139D02*
X269075000Y-68575000D01*
X230212500Y-64687500D02*
X230950000Y-63950000D01*
X207504809Y-68195190D02*
X209300000Y-66400000D01*
X206625000Y-68425000D02*
X195100000Y-68425000D01*
X225675000Y-65425000D02*
X214100000Y-65425000D01*
X247332017Y-60425000D02*
X244725000Y-60425000D01*
X206950000Y-68425000D02*
X206625000Y-68425000D01*
X266685139Y-66185139D02*
G75*
G03*
X264850000Y-65425006I-1835139J-1835161D01*
G01*
X249112500Y-61162500D02*
G75*
G03*
X247332017Y-60424993I-1780500J-1780500D01*
G01*
X252675000Y-64725000D02*
G75*
G03*
X254364949Y-65425021I1690000J1690000D01*
G01*
X235553337Y-60425000D02*
G75*
G03*
X233712489Y-61187489I-37J-2603300D01*
G01*
X272400000Y-71900000D02*
G75*
G03*
X276081675Y-73425010I3681700J3681700D01*
G01*
X191977500Y-68425000D02*
G75*
G03*
X191000189Y-68829826I0J-1382100D01*
G01*
X207504809Y-68195190D02*
G75*
G02*
X206950000Y-68425005I-554809J554790D01*
G01*
X230212500Y-64687500D02*
G75*
G02*
X228432017Y-65425007I-1780500J1780500D01*
G01*
X226650000Y-60800000D02*
X226650000Y-54878000D01*
X225575000Y-61875000D02*
X226650000Y-60800000D01*
X266549784Y-85199784D02*
X269075000Y-87725000D01*
X195162500Y-86962500D02*
X194650000Y-86450000D01*
X272300000Y-90950000D02*
X270775000Y-89425000D01*
X264800000Y-84475000D02*
X263775000Y-84475000D01*
X191952000Y-83752000D02*
X192900000Y-84700000D01*
X244725000Y-79475000D02*
X233157165Y-79475000D01*
X228720495Y-83679504D02*
X231200000Y-81200000D01*
X226800000Y-84475000D02*
X225675000Y-84475000D01*
X206625000Y-87475000D02*
X207625000Y-87475000D01*
X196399784Y-87475000D02*
X206625000Y-87475000D01*
X244725000Y-79475000D02*
X247994149Y-79475000D01*
X249412500Y-80062500D02*
X250000000Y-80650000D01*
X189734743Y-77944743D02*
X187080000Y-75290000D01*
X252737500Y-83437500D02*
X251700000Y-82400000D01*
X301875000Y-92475000D02*
X290400000Y-92475000D01*
X232704500Y-79662500D02*
X232517000Y-79850000D01*
X263775000Y-84475000D02*
X255242246Y-84475000D01*
X275981675Y-92475000D02*
X282825000Y-92475000D01*
X191004000Y-81009000D02*
X191004000Y-81463325D01*
X287800000Y-92475000D02*
X282825000Y-92475000D01*
X225675000Y-84475000D02*
X214450000Y-84475000D01*
X209332106Y-86767893D02*
X210400000Y-85700000D01*
X228720495Y-83679504D02*
G75*
G02*
X226800000Y-84474996I-1920495J1920504D01*
G01*
X272300000Y-90950000D02*
G75*
G03*
X275981675Y-92475010I3681700J3681700D01*
G01*
X189734743Y-77944743D02*
G75*
G02*
X191004004Y-81009000I-3064243J-3064257D01*
G01*
X252737500Y-83437500D02*
G75*
G03*
X255242246Y-84474951I2504700J2504800D01*
G01*
X249412500Y-80062500D02*
G75*
G03*
X247994149Y-79475021I-1418300J-1418300D01*
G01*
X191004000Y-81463325D02*
G75*
G03*
X191952007Y-83751993I3236700J25D01*
G01*
X209332106Y-86767893D02*
G75*
G02*
X207625000Y-87475003I-1707106J1707093D01*
G01*
X266549784Y-85199784D02*
G75*
G03*
X264800000Y-84475009I-1749784J-1749816D01*
G01*
X195162500Y-86962500D02*
G75*
G03*
X196399784Y-87475006I1237300J1237300D01*
G01*
X233157165Y-79475000D02*
G75*
G03*
X232704510Y-79662510I35J-640200D01*
G01*
X207650000Y-63950000D02*
X207650000Y-58028000D01*
X206575000Y-65025000D02*
X207650000Y-63950000D01*
X232731206Y-100118792D02*
X230615469Y-102234530D01*
X225675000Y-103525000D02*
X227500000Y-103525000D01*
X192143792Y-103851740D02*
X193223259Y-104931207D01*
X236578963Y-98525000D02*
X244725000Y-98525000D01*
X188956207Y-79706207D02*
X187080000Y-77830000D01*
X190550000Y-83553963D02*
X190550000Y-100003984D01*
X267564949Y-104514949D02*
X268056497Y-105006497D01*
X301875000Y-111525000D02*
X282825000Y-111525000D01*
X263775000Y-103525000D02*
X255678963Y-103525000D01*
X212303679Y-106525000D02*
X206625000Y-106525000D01*
X197071015Y-106525000D02*
X206625000Y-106525000D01*
X246575000Y-98525000D02*
X244725000Y-98525000D01*
X269400000Y-109177728D02*
X269400000Y-108250000D01*
X265175000Y-103525000D02*
X263775000Y-103525000D01*
X249733147Y-99833147D02*
X251831207Y-101931207D01*
X225675000Y-103525000D02*
X219546320Y-103525000D01*
X271747271Y-111525000D02*
X282825000Y-111525000D01*
X269400000Y-109177728D02*
G75*
G03*
X270087508Y-110837492I2347300J28D01*
G01*
X193223259Y-104931207D02*
G75*
G03*
X197071015Y-106524974I3847741J3847807D01*
G01*
X270087500Y-110837500D02*
G75*
G03*
X271747271Y-111525012I1659800J1659800D01*
G01*
X268056497Y-105006497D02*
G75*
G02*
X269400002Y-108250000I-3243497J-3243503D01*
G01*
X249733147Y-99833147D02*
G75*
G03*
X246575000Y-98525001I-3158147J-3158153D01*
G01*
X190550000Y-100003984D02*
G75*
G03*
X192143774Y-103851758I5441600J-16D01*
G01*
X267564949Y-104514949D02*
G75*
G03*
X265175000Y-103525000I-2389949J-2389951D01*
G01*
X188956207Y-79706207D02*
G75*
G02*
X190550011Y-83553963I-3847807J-3847793D01*
G01*
X215925000Y-105025000D02*
G75*
G02*
X212303679Y-106524992I-3621300J3621300D01*
G01*
X236578963Y-98525000D02*
G75*
G03*
X232731215Y-100118801I37J-5441600D01*
G01*
X251831207Y-101931207D02*
G75*
G03*
X255678963Y-103525011I3847793J3847807D01*
G01*
X219546320Y-103525000D02*
G75*
G03*
X215924994Y-105024994I-20J-5121300D01*
G01*
X230615469Y-102234530D02*
G75*
G02*
X227500000Y-103525011I-3115469J3115430D01*
G01*
X301775000Y-88975000D02*
X302850000Y-87900000D01*
X302850000Y-87900000D02*
X302850000Y-81978000D01*
X283750000Y-87950000D02*
X283750000Y-82028000D01*
X282675000Y-89025000D02*
X283750000Y-87950000D01*
X263625000Y-80975000D02*
X264700000Y-79900000D01*
X264700000Y-79900000D02*
X264700000Y-73978000D01*
X245650000Y-75000000D02*
X245650000Y-69078000D01*
X244575000Y-76075000D02*
X245650000Y-75000000D01*
X226600000Y-80000000D02*
X226600000Y-74078000D01*
X225525000Y-81075000D02*
X226600000Y-80000000D01*
X207550000Y-82900000D02*
X207550000Y-76978000D01*
X206475000Y-83975000D02*
X207550000Y-82900000D01*
X302800000Y-106950000D02*
X302800000Y-101028000D01*
X301725000Y-108025000D02*
X302800000Y-106950000D01*
X283750000Y-107000000D02*
X283750000Y-101078000D01*
X282675000Y-108075000D02*
X283750000Y-107000000D01*
X264700000Y-99000000D02*
X264700000Y-93078000D01*
X263625000Y-100075000D02*
X264700000Y-99000000D01*
X199003963Y-109100000D02*
X212096036Y-109100000D01*
X216156207Y-124973297D02*
X214458011Y-126671494D01*
X191689792Y-104039792D02*
X195156207Y-107506207D01*
X217750000Y-121125541D02*
X217750000Y-114753963D01*
X190096000Y-100192036D02*
X190096000Y-85518634D01*
X214411467Y-126683182D02*
X195628102Y-132786269D01*
X188588000Y-81878000D02*
X187080000Y-80370000D01*
X234225000Y-125575000D02*
X214502066Y-126608635D01*
X215943792Y-110693792D02*
X216156207Y-110906207D01*
X217750000Y-121125541D02*
G75*
G02*
X216156197Y-124973287I-5441600J41D01*
G01*
X195156207Y-107506207D02*
G75*
G03*
X199003963Y-109100011I3847793J3847807D01*
G01*
X188588000Y-81878000D02*
G75*
G02*
X190095986Y-85518634I-3640600J-3640600D01*
G01*
X215943792Y-110693792D02*
G75*
G03*
X212096036Y-109099989I-3847792J-3847808D01*
G01*
X216156207Y-110906207D02*
G75*
G02*
X217750011Y-114753963I-3847807J-3847793D01*
G01*
X190096000Y-100192036D02*
G75*
G03*
X191689800Y-104039784I5441600J36D01*
G01*
X245650000Y-94050000D02*
X245650000Y-88128000D01*
X244575000Y-95125000D02*
X245650000Y-94050000D01*
X225525000Y-100175000D02*
X226600000Y-99100000D01*
X226600000Y-99100000D02*
X226600000Y-93178000D01*
X207550000Y-102150000D02*
X207550000Y-96228000D01*
X206475000Y-103225000D02*
X207550000Y-102150000D01*
X104575000Y-121175000D02*
X104575000Y-115253000D01*
X103500000Y-122250000D02*
X104575000Y-121175000D01*
X104575000Y-115253000D02*
X103642000Y-114320000D01*
X125033698Y-125590641D02*
X126566424Y-119870428D01*
X126566424Y-119870428D02*
X125906694Y-118727741D01*
X123717097Y-126350781D02*
X125033698Y-125590641D01*
X143597625Y-135308699D02*
X146558625Y-130180096D01*
X146558625Y-130180096D02*
X146217124Y-128905595D01*
X142129147Y-135702176D02*
X143597625Y-135308699D01*
X235100000Y-121050000D02*
X235100000Y-115128000D01*
X234025000Y-122125000D02*
X235100000Y-121050000D01*
X213519532Y-123579011D02*
X214279672Y-122262410D01*
X214279672Y-122262410D02*
X212746946Y-116542198D01*
X212746946Y-116542198D02*
X211604259Y-115882467D01*
X193845858Y-129998399D02*
X194239335Y-128529922D01*
X194239335Y-128529922D02*
X191278336Y-123401320D01*
X191278336Y-123401320D02*
X190003834Y-123059818D01*
D30*
X182563792Y-69646207D02*
X187080000Y-65130000D01*
X180970000Y-73493963D02*
X180970000Y-90805000D01*
X182563792Y-69646207D02*
G75*
G03*
X180969959Y-73493963I3847708J-3847793D01*
G01*
X181016510Y-93875000D02*
X183680000Y-93875000D01*
X176450000Y-89308489D02*
X176450000Y-71993963D01*
X171840000Y-65130000D02*
X174856207Y-68146207D01*
X176450000Y-89308489D02*
G75*
G03*
X177787497Y-92537503I4566500J-11D01*
G01*
X177787500Y-92537500D02*
G75*
G03*
X181016510Y-93874996I3229000J3229000D01*
G01*
X174856207Y-68146207D02*
G75*
G02*
X176450011Y-71993963I-3847807J-3847793D01*
G01*
D29*
X178100000Y-95800000D02*
X178100000Y-94800000D01*
X179693792Y-67436207D02*
X187080000Y-60050000D01*
X178100000Y-89450000D02*
X178100000Y-71283963D01*
X180788693Y-98375000D02*
X183680000Y-98375000D01*
X178807106Y-97507106D02*
X178887500Y-97587500D01*
X178887500Y-97587500D02*
G75*
G03*
X180788693Y-98375003I1901200J1901200D01*
G01*
X178100000Y-95800000D02*
G75*
G03*
X178807109Y-97507103I2414200J0D01*
G01*
X178100000Y-71283963D02*
G75*
G02*
X179693821Y-67436236I5441500J-37D01*
G01*
X231890000Y-70735000D02*
X231890000Y-51685000D01*
X231890000Y-70735000D02*
X231890000Y-89785000D01*
X228650000Y-89700000D02*
X231805000Y-89700000D01*
X231805000Y-89700000D02*
X231890000Y-89785000D01*
X230795000Y-100755000D02*
X229700000Y-101850000D01*
X222595000Y-108955000D02*
X223800000Y-107750000D01*
X231890000Y-98111436D02*
X231890000Y-89785000D01*
X221390000Y-111864127D02*
X221390000Y-116835000D01*
X231890000Y-98111436D02*
G75*
G02*
X230794989Y-100754989I-3738600J36D01*
G01*
X222595000Y-108955000D02*
G75*
G03*
X221390011Y-111864127I2909100J-2909100D01*
G01*
X193250000Y-97245000D02*
X193790000Y-97785000D01*
X181725723Y-124124276D02*
X192693377Y-113156622D01*
X193800000Y-110485000D02*
X193800000Y-108920000D01*
X193790000Y-108910000D02*
X193800000Y-108920000D01*
X193250000Y-92900000D02*
X193250000Y-97245000D01*
X193790000Y-59685000D02*
X193790000Y-78735000D01*
X193790000Y-97785000D02*
X193790000Y-103260000D01*
X193790000Y-78735000D02*
X193790000Y-97785000D01*
X180131931Y-127972032D02*
X180131931Y-131686906D01*
X193800000Y-110485000D02*
G75*
G02*
X192693368Y-113156613I-3778200J0D01*
G01*
X181725723Y-124124276D02*
G75*
G03*
X180131959Y-127972032I3847777J-3847724D01*
G01*
X183400000Y-87082233D02*
X183400000Y-82150000D01*
X176297558Y-108600000D02*
X181546877Y-108600000D01*
X172320000Y-112190000D02*
X172320000Y-113450000D01*
X185900000Y-104246877D02*
X185900000Y-93950000D01*
X184650000Y-90100000D02*
X184980761Y-90430761D01*
X185900000Y-92650000D02*
X185900000Y-93950000D01*
X173484999Y-109764999D02*
X173210954Y-110039045D01*
X184625000Y-107325000D02*
G75*
G02*
X181546877Y-108599991I-3078100J3078100D01*
G01*
X173210954Y-110039045D02*
G75*
G03*
X172319997Y-112190000I2150946J-2150955D01*
G01*
X185900000Y-104246877D02*
G75*
G02*
X184625007Y-107325007I-4353100J-23D01*
G01*
X176297558Y-108600000D02*
G75*
G03*
X173485012Y-109765012I42J-3977600D01*
G01*
X183400000Y-87082233D02*
G75*
G03*
X184650010Y-90099990I4267800J33D01*
G01*
X184980761Y-90430761D02*
G75*
G02*
X185899993Y-92650000I-2219261J-2219239D01*
G01*
X288585000Y-83735000D02*
X286350000Y-81500000D01*
X289040000Y-83735000D02*
X288585000Y-83735000D01*
X289040000Y-83735000D02*
X289040000Y-102785000D01*
X289040000Y-64685000D02*
X289040000Y-83735000D01*
X199783320Y-118320643D02*
X199783320Y-121545089D01*
X212200000Y-94145000D02*
X212200000Y-92400000D01*
X212840000Y-66405111D02*
X212840000Y-56685000D01*
X213950000Y-69084888D02*
X213950000Y-71315111D01*
X212840000Y-94785000D02*
X212200000Y-94145000D01*
X212840000Y-75735000D02*
X212840000Y-94785000D01*
X201377112Y-114472887D02*
X204250000Y-111600000D01*
X212840000Y-101390725D02*
X212840000Y-94785000D01*
X212840000Y-73994888D02*
X212840000Y-75735000D01*
X211695000Y-104155000D02*
X210550000Y-105300000D01*
X213395000Y-67745000D02*
G75*
G02*
X213950005Y-69084888I-1339900J-1339900D01*
G01*
X213395000Y-72655000D02*
G75*
G03*
X212839995Y-73994888I1339900J-1339900D01*
G01*
X213950000Y-71315111D02*
G75*
G02*
X213394997Y-72654997I-1894900J11D01*
G01*
X201377112Y-114472887D02*
G75*
G03*
X199783359Y-118320643I3847788J-3847713D01*
G01*
X212840000Y-66405111D02*
G75*
G03*
X213395003Y-67744997I1894900J11D01*
G01*
X212840000Y-101390725D02*
G75*
G02*
X211694993Y-104154993I-3909300J25D01*
G01*
X269675000Y-84050000D02*
X267500000Y-84050000D01*
X269990000Y-64685000D02*
X269990000Y-83735000D01*
X267500000Y-84050000D02*
X267496000Y-84046000D01*
X269990000Y-83735000D02*
X269990000Y-102785000D01*
X269990000Y-83735000D02*
X269675000Y-84050000D01*
X250940000Y-75735000D02*
X250940000Y-94785000D01*
X250200000Y-94045000D02*
X250200000Y-90450000D01*
X250940000Y-56685000D02*
X250940000Y-75735000D01*
X250940000Y-94785000D02*
X250200000Y-94045000D01*
M02*
