G04 #@! TF.GenerationSoftware,KiCad,Pcbnew,8.0.8*
G04 #@! TF.CreationDate,2025-03-03T09:41:38+03:00*
G04 #@! TF.ProjectId,KeebIsSplit,4b656562-4973-4537-906c-69742e6b6963,rev?*
G04 #@! TF.SameCoordinates,Original*
G04 #@! TF.FileFunction,Soldermask,Top*
G04 #@! TF.FilePolarity,Negative*
%FSLAX46Y46*%
G04 Gerber Fmt 4.6, Leading zero omitted, Abs format (unit mm)*
G04 Created by KiCad (PCBNEW 8.0.8) date 2025-03-03 09:41:38*
%MOMM*%
%LPD*%
G01*
G04 APERTURE LIST*
%ADD10C,1.750000*%
%ADD11C,3.050000*%
%ADD12C,4.000000*%
%ADD13C,3.800000*%
%ADD14C,3.500000*%
%ADD15R,1.500000X1.600000*%
%ADD16C,1.600000*%
%ADD17C,3.000000*%
%ADD18C,0.500000*%
%ADD19R,2.250000X2.250000*%
%ADD20C,2.250000*%
%ADD21R,1.752600X1.752600*%
%ADD22C,1.752600*%
G04 APERTURE END LIST*
D10*
X63195000Y-97325000D03*
D11*
X64465000Y-94785000D03*
D12*
X68275000Y-97325000D03*
D11*
X70815000Y-92245000D03*
D10*
X73355000Y-97325000D03*
X101295000Y-78275000D03*
D11*
X102565000Y-75735000D03*
D12*
X106375000Y-78275000D03*
D11*
X108915000Y-73195000D03*
D10*
X111455000Y-78275000D03*
D13*
X187570000Y-110950000D03*
D10*
X82245000Y-73275000D03*
D11*
X83515000Y-70735000D03*
D12*
X87325000Y-73275000D03*
D11*
X89865000Y-68195000D03*
D10*
X92405000Y-73275000D03*
D14*
X286600000Y-76750000D03*
D15*
X142620000Y-100875000D03*
D16*
X142620000Y-98375000D03*
X142620000Y-96375000D03*
X142620000Y-93875000D03*
D17*
X145330000Y-103945000D03*
X145330000Y-90805000D03*
D18*
X136950000Y-53200000D03*
X137700000Y-53200000D03*
X138450000Y-53200000D03*
X139200000Y-53200000D03*
X139950000Y-53200000D03*
X140700000Y-53200000D03*
D14*
X210400000Y-70250000D03*
D18*
X185600000Y-53200000D03*
X186350000Y-53200000D03*
X187100000Y-53200000D03*
X187850000Y-53200000D03*
X188600000Y-53200000D03*
X189350000Y-53200000D03*
D10*
X195795000Y-81275000D03*
D11*
X197065000Y-78735000D03*
D12*
X200875000Y-81275000D03*
D11*
X203415000Y-76195000D03*
D10*
X205955000Y-81275000D03*
X291045000Y-86275000D03*
D11*
X292315000Y-83735000D03*
D12*
X296125000Y-86275000D03*
D11*
X298665000Y-81195000D03*
D10*
X301205000Y-86275000D03*
X291045000Y-67225000D03*
D11*
X292315000Y-64685000D03*
D12*
X296125000Y-67225000D03*
D11*
X298665000Y-62145000D03*
D10*
X301205000Y-67225000D03*
D18*
X35100000Y-58200000D03*
X35850000Y-58200000D03*
X36600000Y-58200000D03*
X37350000Y-58200000D03*
X38100000Y-58200000D03*
X38850000Y-58200000D03*
D10*
X114108792Y-120850007D03*
D11*
X115992918Y-118725256D03*
D12*
X119015695Y-122164808D03*
D11*
X122783947Y-117915305D03*
D10*
X123922598Y-123479609D03*
X44145000Y-86275000D03*
D11*
X45415000Y-83735000D03*
D12*
X49225000Y-86275000D03*
D11*
X51765000Y-81195000D03*
D10*
X54305000Y-86275000D03*
D14*
X233450000Y-105850000D03*
D10*
X63195000Y-78275000D03*
D11*
X64465000Y-75735000D03*
D12*
X68275000Y-78275000D03*
D11*
X70815000Y-73195000D03*
D10*
X73355000Y-78275000D03*
X195795000Y-62225000D03*
D11*
X197065000Y-59685000D03*
D12*
X200875000Y-62225000D03*
D11*
X203415000Y-57145000D03*
D10*
X205955000Y-62225000D03*
X195795000Y-100325000D03*
D11*
X197065000Y-97785000D03*
D12*
X200875000Y-100325000D03*
D11*
X203415000Y-95245000D03*
D10*
X205955000Y-100325000D03*
D13*
X138730000Y-110950000D03*
D15*
X183680000Y-93875000D03*
D16*
X183680000Y-96375000D03*
X183680000Y-98375000D03*
X183680000Y-100875000D03*
D17*
X180970000Y-90805000D03*
X180970000Y-103945000D03*
D14*
X193871562Y-117709469D03*
D10*
X101295000Y-59225000D03*
D11*
X102565000Y-56685000D03*
D12*
X106375000Y-59225000D03*
D11*
X108915000Y-54145000D03*
D10*
X111455000Y-59225000D03*
X25095000Y-67225000D03*
D11*
X26365000Y-64685000D03*
D12*
X30175000Y-67225000D03*
D11*
X32715000Y-62145000D03*
D10*
X35255000Y-67225000D03*
X252945000Y-97325000D03*
D11*
X254215000Y-94785000D03*
D12*
X258025000Y-97325000D03*
D11*
X260565000Y-92245000D03*
D10*
X263105000Y-97325000D03*
X25095000Y-86275000D03*
D11*
X26365000Y-83735000D03*
D12*
X30175000Y-86275000D03*
D11*
X32715000Y-81195000D03*
D10*
X35255000Y-86275000D03*
D13*
X173570000Y-119032904D03*
D10*
X92745000Y-119375000D03*
D11*
X94015000Y-116835000D03*
D12*
X97825000Y-119375000D03*
D11*
X100365000Y-114295000D03*
D10*
X102905000Y-119375000D03*
X223395000Y-119375000D03*
D11*
X224665000Y-116835000D03*
D12*
X228475000Y-119375000D03*
D11*
X231015000Y-114295000D03*
D10*
X233555000Y-119375000D03*
X252945000Y-78275000D03*
D11*
X254215000Y-75735000D03*
D12*
X258025000Y-78275000D03*
D11*
X260565000Y-73195000D03*
D10*
X263105000Y-78275000D03*
D18*
X287450000Y-58200000D03*
X288200000Y-58200000D03*
X288950000Y-58200000D03*
X289700000Y-58200000D03*
X290450000Y-58200000D03*
X291200000Y-58200000D03*
D14*
X39700000Y-76750000D03*
X286600000Y-95800000D03*
D10*
X271995000Y-105325000D03*
D11*
X273265000Y-102785000D03*
D12*
X277075000Y-105325000D03*
D11*
X279615000Y-100245000D03*
D10*
X282155000Y-105325000D03*
D19*
X153980000Y-113450000D03*
D20*
X147480000Y-113450000D03*
D10*
X214845000Y-59225000D03*
D11*
X216115000Y-56685000D03*
D12*
X219925000Y-59225000D03*
D11*
X222465000Y-54145000D03*
D10*
X225005000Y-59225000D03*
X44145000Y-105325000D03*
D11*
X45415000Y-102785000D03*
D12*
X49225000Y-105325000D03*
D11*
X51765000Y-100245000D03*
D10*
X54305000Y-105325000D03*
D14*
X39700000Y-95800000D03*
D10*
X233895000Y-54225000D03*
D11*
X235165000Y-51685000D03*
D12*
X238975000Y-54225000D03*
D11*
X241515000Y-49145000D03*
D10*
X244055000Y-54225000D03*
D18*
X37800000Y-114350000D03*
X38550000Y-114350000D03*
X39300000Y-114350000D03*
X40050000Y-114350000D03*
X40800000Y-114350000D03*
X41550000Y-114350000D03*
X284700000Y-114350000D03*
X285450000Y-114350000D03*
X286200000Y-114350000D03*
X286950000Y-114350000D03*
X287700000Y-114350000D03*
X288450000Y-114350000D03*
D10*
X214845000Y-78275000D03*
D11*
X216115000Y-75735000D03*
D12*
X219925000Y-78275000D03*
D11*
X222465000Y-73195000D03*
D10*
X225005000Y-78275000D03*
X252945000Y-59225000D03*
D11*
X254215000Y-56685000D03*
D12*
X258025000Y-59225000D03*
D11*
X260565000Y-54145000D03*
D10*
X263105000Y-59225000D03*
D13*
X152730000Y-119032904D03*
D10*
X134362870Y-127804111D03*
D11*
X136732722Y-126239406D03*
D12*
X138762279Y-130344111D03*
D11*
X143501984Y-127214702D03*
D10*
X143161688Y-132884111D03*
X101295000Y-97325000D03*
D11*
X102565000Y-94785000D03*
D12*
X106375000Y-97325000D03*
D11*
X108915000Y-92245000D03*
D10*
X111455000Y-97325000D03*
X82245000Y-54225000D03*
D11*
X83515000Y-51685000D03*
D12*
X87325000Y-54225000D03*
D11*
X89865000Y-49145000D03*
D10*
X92405000Y-54225000D03*
X271995000Y-67225000D03*
D11*
X273265000Y-64685000D03*
D12*
X277075000Y-67225000D03*
D11*
X279615000Y-62145000D03*
D10*
X282155000Y-67225000D03*
X291045000Y-105325000D03*
D11*
X292315000Y-102785000D03*
D12*
X296125000Y-105325000D03*
D11*
X298665000Y-100245000D03*
D10*
X301205000Y-105325000D03*
D18*
X226600000Y-128400000D03*
X227350000Y-128400000D03*
X228100000Y-128400000D03*
X228850000Y-128400000D03*
X229600000Y-128400000D03*
X230350000Y-128400000D03*
D19*
X172320000Y-113450000D03*
D20*
X178820000Y-113450000D03*
D10*
X120345000Y-81275000D03*
D11*
X121615000Y-78735000D03*
D12*
X125425000Y-81275000D03*
D11*
X127965000Y-76195000D03*
D10*
X130505000Y-81275000D03*
X82245000Y-92325000D03*
D11*
X83515000Y-89785000D03*
D12*
X87325000Y-92325000D03*
D11*
X89865000Y-87245000D03*
D10*
X92405000Y-92325000D03*
D18*
X95950000Y-128400000D03*
X96700000Y-128400000D03*
X97450000Y-128400000D03*
X98200000Y-128400000D03*
X98950000Y-128400000D03*
X99700000Y-128400000D03*
D10*
X271995000Y-86275000D03*
D11*
X273265000Y-83735000D03*
D12*
X277075000Y-86275000D03*
D11*
X279615000Y-81195000D03*
D10*
X282155000Y-86275000D03*
X120345000Y-62225000D03*
D11*
X121615000Y-59685000D03*
D12*
X125425000Y-62225000D03*
D11*
X127965000Y-57145000D03*
D10*
X130505000Y-62225000D03*
X202377402Y-123479608D03*
D11*
X202946727Y-120697457D03*
D12*
X207284305Y-122164808D03*
D11*
X208422955Y-116600504D03*
D10*
X212191208Y-120850008D03*
D14*
X92850000Y-105850000D03*
D10*
X44145000Y-67225000D03*
D11*
X45415000Y-64685000D03*
D12*
X49225000Y-67225000D03*
D11*
X51765000Y-62145000D03*
D10*
X54305000Y-67225000D03*
D14*
X132428438Y-117709469D03*
D10*
X233895000Y-92325000D03*
D11*
X235165000Y-89785000D03*
D12*
X238975000Y-92325000D03*
D11*
X241515000Y-87245000D03*
D10*
X244055000Y-92325000D03*
X25095000Y-105325000D03*
D11*
X26365000Y-102785000D03*
D12*
X30175000Y-105325000D03*
D11*
X32715000Y-100245000D03*
D10*
X35255000Y-105325000D03*
X63195000Y-59225000D03*
D11*
X64465000Y-56685000D03*
D12*
X68275000Y-59225000D03*
D11*
X70815000Y-54145000D03*
D10*
X73355000Y-59225000D03*
D14*
X115900000Y-70250000D03*
D10*
X120345000Y-100325000D03*
D11*
X121615000Y-97785000D03*
D12*
X125425000Y-100325000D03*
D11*
X127965000Y-95245000D03*
D10*
X130505000Y-100325000D03*
X214845000Y-97325000D03*
D11*
X216115000Y-94785000D03*
D12*
X219925000Y-97325000D03*
D11*
X222465000Y-92245000D03*
D10*
X225005000Y-97325000D03*
X183138312Y-132884111D03*
D11*
X182968164Y-130049406D03*
D12*
X187537721Y-130344111D03*
D11*
X187197426Y-124674702D03*
D10*
X191937130Y-127804111D03*
X233895000Y-73275000D03*
D11*
X235165000Y-70735000D03*
D12*
X238975000Y-73275000D03*
D11*
X241515000Y-68195000D03*
D10*
X244055000Y-73275000D03*
D21*
X154460000Y-57510000D03*
D22*
X154460000Y-60050000D03*
X154460000Y-62590000D03*
X154460000Y-65130000D03*
X154460000Y-67670000D03*
X154460000Y-70210000D03*
X154460000Y-72750000D03*
X154460000Y-75290000D03*
X154460000Y-77830000D03*
X154460000Y-80370000D03*
X154460000Y-82910000D03*
X154460000Y-85450000D03*
X139220000Y-85450000D03*
X139220000Y-82910000D03*
X139220000Y-80370000D03*
X139220000Y-77830000D03*
X139220000Y-75290000D03*
X139220000Y-72750000D03*
X139220000Y-70210000D03*
X139220000Y-67670000D03*
X139220000Y-65130000D03*
X139220000Y-62590000D03*
X139220000Y-60050000D03*
X139220000Y-57510000D03*
D21*
X187080000Y-57510000D03*
D22*
X187080000Y-60050000D03*
X187080000Y-62590000D03*
X187080000Y-65130000D03*
X187080000Y-67670000D03*
X187080000Y-70210000D03*
X187080000Y-72750000D03*
X187080000Y-75290000D03*
X187080000Y-77830000D03*
X187080000Y-80370000D03*
X187080000Y-82910000D03*
X187080000Y-85450000D03*
X171840000Y-85450000D03*
X171840000Y-82910000D03*
X171840000Y-80370000D03*
X171840000Y-77830000D03*
X171840000Y-75290000D03*
X171840000Y-72750000D03*
X171840000Y-70210000D03*
X171840000Y-67670000D03*
X171840000Y-65130000D03*
X171840000Y-62590000D03*
X171840000Y-60050000D03*
X171840000Y-57510000D03*
M02*
